<svg width="166" height="226" viewBox="0 0 166 226" fill="none" xmlns="http://www.w3.org/2000/svg">
<rect x="2" y="2" width="162" height="222" rx="23" fill="#FFFAFB" stroke="black" stroke-width="4"/>
<path d="M30.9569 42.3659L19.4 28.9021L30.9569 15.3999L42.5137 28.9021L30.9569 42.3659Z" fill="#BC4749"/>
<path d="M136.957 210.366L125.4 196.902L136.957 183.4L148.514 196.902L136.957 210.366Z" fill="#BC4749"/>
<path d="M82.9353 133.049L65.6 112.853L82.9353 92.6001L100.271 112.853L82.9353 133.049Z" fill="#BC4749"/>
<path d="M44.39 78H31.97V75.87L35.54 74.01L34.01 70.23H25.25L24.02 73.29L28.22 75.6L27.02 78H17V75.87L20.51 73.26L27.71 55.38L34.13 53.85L42.47 74.19L45.59 75.6L44.39 78ZM29.57 59.34L26.36 67.38H32.84L29.57 59.34Z" fill="black"/>
<path d="M150.39 171H137.97V168.87L141.54 167.01L140.01 163.23H131.25L130.02 166.29L134.22 168.6L133.02 171H123V168.87L126.51 166.26L133.71 148.38L140.13 146.85L148.47 167.19L151.59 168.6L150.39 171ZM135.57 152.34L132.36 160.38H138.84L135.57 152.34Z" fill="black"/>
</svg>
