<svg width="166" height="226" viewBox="0 0 166 226" fill="none" xmlns="http://www.w3.org/2000/svg">
<rect x="2" y="2" width="162" height="222" rx="23" fill="#FFFAFB" stroke="black" stroke-width="4"/>
<path d="M17.8515 32.2494C14.5463 28.2146 13.7628 22.5847 17.3881 18.8978C21.3063 14.9129 27.2696 16.0676 30.8878 19.7473C34.5061 16.0677 40.4693 14.9128 44.3876 18.8978C48.0129 22.5847 47.2293 28.2146 43.9242 32.2494C40.3552 36.6063 35.4689 40.3498 30.8878 43.5962C26.3068 40.3498 21.4205 36.6063 17.8515 32.2494Z" fill="#BC4749"/>
<path d="M123.851 199.249C120.546 195.215 119.763 189.585 123.388 185.898C127.306 181.913 133.27 183.068 136.888 186.747C140.506 183.068 146.469 181.913 150.388 185.898C154.013 189.585 153.229 195.215 149.924 199.249C146.355 203.606 141.469 207.35 136.888 210.596C132.307 207.35 127.421 203.606 123.851 199.249Z" fill="#BC4749"/>
<path d="M63.2772 116.374C58.3195 110.322 57.1441 101.877 62.5821 96.3469C68.4595 90.3696 77.4045 92.1017 82.8318 97.6212C88.2591 92.1018 97.204 90.3695 103.081 96.3469C108.519 101.877 107.344 110.322 102.386 116.374C97.0327 122.91 89.7033 128.525 82.8318 133.394C75.9602 128.525 68.6308 122.91 63.2772 116.374Z" fill="#BC4749"/>
<path d="M44.39 78H31.97V75.87L35.54 74.01L34.01 70.23H25.25L24.02 73.29L28.22 75.6L27.02 78H17V75.87L20.51 73.26L27.71 55.38L34.13 53.85L42.47 74.19L45.59 75.6L44.39 78ZM29.57 59.34L26.36 67.38H32.84L29.57 59.34Z" fill="black"/>
<path d="M150.39 171H137.97V168.87L141.54 167.01L140.01 163.23H131.25L130.02 166.29L134.22 168.6L133.02 171H123V168.87L126.51 166.26L133.71 148.38L140.13 146.85L148.47 167.19L151.59 168.6L150.39 171ZM135.57 152.34L132.36 160.38H138.84L135.57 152.34Z" fill="black"/>
</svg>
