<svg width="166" height="226" viewBox="0 0 166 226" fill="none" xmlns="http://www.w3.org/2000/svg">
<rect x="2" y="2" width="162" height="222" rx="23" fill="#FFFAFB" stroke="black" stroke-width="4"/>
<path d="M30.9569 42.3659L19.4 28.9021L30.9569 15.3999L42.5138 28.9021L30.9569 42.3659Z" fill="#BC4749"/>
<path d="M136.957 210.366L125.4 196.902L136.957 183.4L148.514 196.902L136.957 210.366Z" fill="#BC4749"/>
<path d="M82.9353 133.049L65.6 112.853L82.9353 92.6001L100.271 112.853L82.9353 133.049Z" fill="#BC4749"/>
<path d="M33.87 75.03C33.87 75.83 33.89 76.57 33.93 77.25C33.99 77.91 34.06 78.36 34.14 78.6L26.73 85.92L24.39 84.12C25.59 82.7 26.39 81.49 26.79 80.49C27.21 79.49 27.42 78.25 27.42 76.77V57.69L23.4 56.82L24.6 54.42H36.72V56.55L33.87 58.77V75.03Z" fill="black"/>
<path d="M139.87 168.03C139.87 168.83 139.89 169.57 139.93 170.25C139.99 170.91 140.06 171.36 140.14 171.6L132.73 178.92L130.39 177.12C131.59 175.7 132.39 174.49 132.79 173.49C133.21 172.49 133.42 171.25 133.42 169.77V150.69L129.4 149.82L130.6 147.42H142.72V149.55L139.87 151.77V168.03Z" fill="black"/>
</svg>
