<svg width="166" height="226" viewBox="0 0 166 226" fill="none" xmlns="http://www.w3.org/2000/svg">
<rect x="2" y="2" width="162" height="222" rx="23" fill="#FFFAFB" stroke="black" stroke-width="4"/>
<path d="M30.9569 42.3659L19.4 28.9021L30.9569 15.3999L42.5137 28.9021L30.9569 42.3659Z" fill="#BC4749"/>
<path d="M136.957 210.366L125.4 196.902L136.957 183.4L148.514 196.902L136.957 210.366Z" fill="#BC4749"/>
<path d="M82.9353 133.049L65.6 112.853L82.9353 92.6001L100.271 112.853L82.9353 133.049Z" fill="#BC4749"/>
<path d="M30.92 75.57L29.72 77.97H18.2V75.84L21.02 73.38V57.72L17.6 56.82L18.8 54.42H30.32V56.55L27.47 59.04V74.67L30.92 75.57ZM43.34 77.97H36.41L28.31 66.15L36.65 58.77L33.14 56.79L34.34 54.39H43.91V56.52L34.7 64.65L41.36 74.13L44.54 75.57L43.34 77.97Z" fill="black"/>
<path d="M136.92 168.57L135.72 170.97H124.2V168.84L127.02 166.38V150.72L123.6 149.82L124.8 147.42H136.32V149.55L133.47 152.04V167.67L136.92 168.57ZM149.34 170.97H142.41L134.31 159.15L142.65 151.77L139.14 149.79L140.34 147.39H149.91V149.52L140.7 157.65L147.36 167.13L150.54 168.57L149.34 170.97Z" fill="black"/>
</svg>
