<svg width="166" height="226" viewBox="0 0 166 226" fill="none" xmlns="http://www.w3.org/2000/svg">
<rect x="2" y="2" width="162" height="222" rx="23" fill="#FFFAFB" stroke="black" stroke-width="4"/>
<path d="M17.8515 26.7506C14.5463 30.7854 13.7628 36.4153 17.3881 40.1022C21.3063 44.0871 27.2697 42.9324 30.8878 39.2527C34.5061 42.9323 40.4693 44.0872 44.3876 40.1022C48.0129 36.4153 47.2293 30.7854 43.9242 26.7506C40.3552 22.3937 35.4689 18.6502 30.8878 15.4038C26.3068 18.6502 21.4205 22.3937 17.8515 26.7506Z" fill="#2C2C2C"/>
<path d="M123.851 193.751C120.546 197.785 119.763 203.415 123.388 207.102C127.306 211.087 133.27 209.932 136.888 206.253C140.506 209.932 146.469 211.087 150.388 207.102C154.013 203.415 153.229 197.785 149.924 193.751C146.355 189.394 141.469 185.65 136.888 182.404C132.307 185.65 127.421 189.394 123.851 193.751Z" fill="#2C2C2C"/>
<path d="M63.2772 108.626C58.3195 114.678 57.1441 123.123 62.5821 128.653C68.4595 134.63 77.4045 132.898 82.8318 127.379C88.2591 132.898 97.204 134.63 103.081 128.653C108.519 123.123 107.344 114.678 102.386 108.626C97.0327 102.09 89.7033 96.4751 82.8318 91.6055C75.9602 96.4751 68.6308 102.09 63.2772 108.626Z" fill="#2C2C2C"/>
<path d="M30.92 75.57L29.72 77.97H18.2V75.84L21.02 73.38V57.72L17.6 56.82L18.8 54.42H30.32V56.55L27.47 59.04V74.67L30.92 75.57ZM43.34 77.97H36.41L28.31 66.15L36.65 58.77L33.14 56.79L34.34 54.39H43.91V56.52L34.7 64.65L41.36 74.13L44.54 75.57L43.34 77.97Z" fill="black"/>
<path d="M136.92 168.57L135.72 170.97H124.2V168.84L127.02 166.38V150.72L123.6 149.82L124.8 147.42H136.32V149.55L133.47 152.04V167.67L136.92 168.57ZM149.34 170.97H142.41L134.31 159.15L142.65 151.77L139.14 149.79L140.34 147.39H149.91V149.52L140.7 157.65L147.36 167.13L150.54 168.57L149.34 170.97Z" fill="black"/>
</svg>
