<svg width="166" height="226" viewBox="0 0 166 226" fill="none" xmlns="http://www.w3.org/2000/svg">
<rect x="2" y="2" width="162" height="222" rx="23" fill="#FFFAFB" stroke="black" stroke-width="4"/>
<path d="M30.9569 42.3659L19.4 28.9021L30.9569 15.3999L42.5138 28.9021L30.9569 42.3659Z" fill="#BC4749"/>
<path d="M136.957 210.366L125.4 196.902L136.957 183.4L148.514 196.902L136.957 210.366Z" fill="#BC4749"/>
<path d="M82.9353 133.049L65.6 112.853L82.9353 92.6001L100.271 112.853L82.9353 133.049Z" fill="#BC4749"/>
<path d="M31.45 60.21C33.13 60.21 34.65 60.62 36.01 61.44C37.37 62.24 38.44 63.37 39.22 64.83C40 66.29 40.39 67.96 40.39 69.84C40.39 71.7 39.94 73.5 39.04 75.24C38.14 76.96 36.54 78.72 34.24 80.52C31.96 82.34 28.84 84.14 24.88 85.92L23.56 83.49C26.14 81.97 28.18 80.53 29.68 79.17C31.2 77.83 32.28 76.49 32.92 75.15C33.58 73.81 33.91 72.36 33.91 70.8C33.91 69.62 33.74 68.51 33.4 67.47C33.08 66.41 32.59 65.56 31.93 64.92C31.29 64.26 30.51 63.93 29.59 63.93C27.85 63.93 26.98 65.17 26.98 67.65C26.98 69.47 27.4 70.96 28.24 72.12C29.1 73.28 30.17 74.17 31.45 74.79L29.92 77.34C28.28 77.34 26.73 76.98 25.27 76.26C23.83 75.54 22.67 74.58 21.79 73.38C20.93 72.16 20.5 70.85 20.5 69.45C20.5 67.89 21.03 66.4 22.09 64.98C23.15 63.54 24.53 62.39 26.23 61.53C27.93 60.65 29.67 60.21 31.45 60.21Z" fill="black"/>
<path d="M137.45 153.21C139.13 153.21 140.65 153.62 142.01 154.44C143.37 155.24 144.44 156.37 145.22 157.83C146 159.29 146.39 160.96 146.39 162.84C146.39 164.7 145.94 166.5 145.04 168.24C144.14 169.96 142.54 171.72 140.24 173.52C137.96 175.34 134.84 177.14 130.88 178.92L129.56 176.49C132.14 174.97 134.18 173.53 135.68 172.17C137.2 170.83 138.28 169.49 138.92 168.15C139.58 166.81 139.91 165.36 139.91 163.8C139.91 162.62 139.74 161.51 139.4 160.47C139.08 159.41 138.59 158.56 137.93 157.92C137.29 157.26 136.51 156.93 135.59 156.93C133.85 156.93 132.98 158.17 132.98 160.65C132.98 162.47 133.4 163.96 134.24 165.12C135.1 166.28 136.17 167.17 137.45 167.79L135.92 170.34C134.28 170.34 132.73 169.98 131.27 169.26C129.83 168.54 128.67 167.58 127.79 166.38C126.93 165.16 126.5 163.85 126.5 162.45C126.5 160.89 127.03 159.4 128.09 157.98C129.15 156.54 130.53 155.39 132.23 154.53C133.93 153.65 135.67 153.21 137.45 153.21Z" fill="black"/>
</svg>
