<svg width="166" height="226" viewBox="0 0 166 226" fill="none" xmlns="http://www.w3.org/2000/svg">
<rect x="2" y="2" width="162" height="222" rx="23" fill="#FFFAFB" stroke="black" stroke-width="4"/>
<path d="M38.8989 24.8898L38.3148 27.0823L40.5786 27.2359C44.8311 27.5244 48.1925 31.0676 48.1925 35.3944C48.1925 39.9107 44.5313 43.572 40.015 43.572C36.7963 43.572 34.0083 41.7126 32.6732 39.001L30.9963 35.5954L29.3194 39.001C27.9842 41.7126 25.1963 43.572 21.9776 43.572C17.4612 43.572 13.8 39.9107 13.8 35.3944C13.8 31.0676 17.1614 27.5244 21.414 27.2359L23.6777 27.0823L23.0936 24.8898C22.9146 24.2181 22.8187 23.5105 22.8187 22.7777C22.8187 18.2613 26.4799 14.6001 30.9963 14.6001C35.5126 14.6001 39.1738 18.2613 39.1738 22.7777C39.1738 23.5105 39.0779 24.2181 38.8989 24.8898Z" fill="#2C2C2C"/>
<path d="M144.899 191.89L144.315 194.082L146.579 194.236C150.831 194.524 154.193 198.068 154.193 202.394C154.193 206.911 150.531 210.572 146.015 210.572C142.796 210.572 140.008 208.713 138.673 206.001L136.996 202.595L135.319 206.001C133.984 208.713 131.196 210.572 127.978 210.572C123.461 210.572 119.8 206.911 119.8 202.394C119.8 198.068 123.161 194.524 127.414 194.236L129.678 194.082L129.094 191.89C128.915 191.218 128.819 190.511 128.819 189.778C128.819 185.261 132.48 181.6 136.996 181.6C141.513 181.6 145.174 185.261 145.174 189.778C145.174 190.511 145.078 191.218 144.899 191.89Z" fill="#2C2C2C"/>
<path d="M94.8484 105.834L93.9722 109.123L97.3679 109.354C103.747 109.786 108.789 115.101 108.789 121.591C108.789 128.366 103.297 133.858 96.5224 133.858C91.6944 133.858 87.5125 131.069 85.5097 127.001L82.9944 121.893L80.479 127.001C78.4763 131.069 74.2944 133.858 69.4664 133.858C62.6918 133.858 57.2 128.366 57.2 121.591C57.2 115.101 62.2422 109.786 68.6209 109.354L72.0166 109.123L71.1404 105.834C70.8719 104.827 70.728 103.766 70.728 102.666C70.728 95.8917 76.2199 90.3999 82.9944 90.3999C89.7689 90.3999 95.2607 95.8917 95.2607 102.666C95.2607 103.766 95.1168 104.827 94.8484 105.834Z" fill="#2C2C2C"/>
<path d="M48.34 83.7C44.18 85.18 41.33 85.92 39.79 85.92C39.13 85.92 38.1 85.2 36.7 83.76C35.32 82.34 33.72 80.54 31.9 78.36C31.06 78.52 30.3 78.6 29.62 78.6C27.22 78.6 25.1 78.1 23.26 77.1C21.44 76.08 20.02 74.67 19 72.87C18 71.07 17.5 69.03 17.5 66.75C17.5 64.41 18.25 62.25 19.75 60.27C21.27 58.27 23.15 56.7 25.39 55.56C27.63 54.4 29.75 53.82 31.75 53.82C34.15 53.82 36.27 54.33 38.11 55.35C39.95 56.37 41.37 57.78 42.37 59.58C43.37 61.38 43.87 63.42 43.87 65.7C43.87 68.02 43.13 70.16 41.65 72.12C40.17 74.08 38.31 75.65 36.07 76.83C37.67 77.95 39.16 78.95 40.54 79.83C41.94 80.71 42.79 81.15 43.09 81.15H47.14L48.34 83.7ZM24.55 65.31C24.55 67.01 24.8 68.56 25.3 69.96C25.8 71.36 26.56 72.48 27.58 73.32C28.62 74.16 29.88 74.58 31.36 74.58C32.36 74.58 33.27 74.26 34.09 73.62C34.93 72.96 35.59 72.06 36.07 70.92C36.57 69.78 36.82 68.51 36.82 67.11C36.82 65.39 36.57 63.83 36.07 62.43C35.57 61.03 34.81 59.92 33.79 59.1C32.77 58.26 31.51 57.84 30.01 57.84C29.01 57.84 28.09 58.17 27.25 58.83C26.43 59.47 25.77 60.36 25.27 61.5C24.79 62.64 24.55 63.91 24.55 65.31Z" fill="black"/>
<path d="M154.34 176.7C150.18 178.18 147.33 178.92 145.79 178.92C145.13 178.92 144.1 178.2 142.7 176.76C141.32 175.34 139.72 173.54 137.9 171.36C137.06 171.52 136.3 171.6 135.62 171.6C133.22 171.6 131.1 171.1 129.26 170.1C127.44 169.08 126.02 167.67 125 165.87C124 164.07 123.5 162.03 123.5 159.75C123.5 157.41 124.25 155.25 125.75 153.27C127.27 151.27 129.15 149.7 131.39 148.56C133.63 147.4 135.75 146.82 137.75 146.82C140.15 146.82 142.27 147.33 144.11 148.35C145.95 149.37 147.37 150.78 148.37 152.58C149.37 154.38 149.87 156.42 149.87 158.7C149.87 161.02 149.13 163.16 147.65 165.12C146.17 167.08 144.31 168.65 142.07 169.83C143.67 170.95 145.16 171.95 146.54 172.83C147.94 173.71 148.79 174.15 149.09 174.15H153.14L154.34 176.7ZM130.55 158.31C130.55 160.01 130.8 161.56 131.3 162.96C131.8 164.36 132.56 165.48 133.58 166.32C134.62 167.16 135.88 167.58 137.36 167.58C138.36 167.58 139.27 167.26 140.09 166.62C140.93 165.96 141.59 165.06 142.07 163.92C142.57 162.78 142.82 161.51 142.82 160.11C142.82 158.39 142.57 156.83 142.07 155.43C141.57 154.03 140.81 152.92 139.79 152.1C138.77 151.26 137.51 150.84 136.01 150.84C135.01 150.84 134.09 151.17 133.25 151.83C132.43 152.47 131.77 153.36 131.27 154.5C130.79 155.64 130.55 156.91 130.55 158.31Z" fill="black"/>
</svg>
