<svg width="166" height="226" viewBox="0 0 166 226" fill="none" xmlns="http://www.w3.org/2000/svg">
<rect x="2" y="2" width="162" height="222" rx="23" fill="#FFFAFB" stroke="black" stroke-width="4"/>
<path d="M38.8989 24.8898L38.3148 27.0823L40.5786 27.2359C44.8311 27.5244 48.1925 31.0676 48.1925 35.3944C48.1925 39.9107 44.5313 43.572 40.0149 43.572C36.7962 43.572 34.0083 41.7126 32.6731 39.001L30.9962 35.5954L29.3193 39.001C27.9842 41.7126 25.1963 43.572 21.9776 43.572C17.4612 43.572 13.8 39.9107 13.8 35.3944C13.8 31.0676 17.1614 27.5244 21.4139 27.2359L23.6777 27.0823L23.0936 24.8898C22.9146 24.2181 22.8187 23.5105 22.8187 22.7777C22.8187 18.2613 26.4799 14.6001 30.9962 14.6001C35.5126 14.6001 39.1738 18.2613 39.1738 22.7777C39.1738 23.5105 39.0779 24.2181 38.8989 24.8898Z" fill="#2C2C2C"/>
<path d="M144.899 191.89L144.315 194.082L146.579 194.236C150.831 194.524 154.193 198.068 154.193 202.394C154.193 206.911 150.531 210.572 146.015 210.572C142.796 210.572 140.008 208.713 138.673 206.001L136.996 202.595L135.319 206.001C133.984 208.713 131.196 210.572 127.978 210.572C123.461 210.572 119.8 206.911 119.8 202.394C119.8 198.068 123.161 194.524 127.414 194.236L129.678 194.082L129.094 191.89C128.915 191.218 128.819 190.511 128.819 189.778C128.819 185.261 132.48 181.6 136.996 181.6C141.513 181.6 145.174 185.261 145.174 189.778C145.174 190.511 145.078 191.218 144.899 191.89Z" fill="#2C2C2C"/>
<path d="M94.8484 105.834L93.9722 109.123L97.3679 109.354C103.747 109.786 108.789 115.101 108.789 121.591C108.789 128.366 103.297 133.858 96.5224 133.858C91.6944 133.858 87.5125 131.069 85.5098 127.001L82.9944 121.893L80.4791 127.001C78.4763 131.069 74.2944 133.858 69.4664 133.858C62.6918 133.858 57.2 128.366 57.2 121.591C57.2 115.101 62.2422 109.786 68.6209 109.354L72.0166 109.123L71.1404 105.834C70.8719 104.827 70.728 103.766 70.728 102.666C70.728 95.8917 76.2199 90.3999 82.9944 90.3999C89.7689 90.3999 95.2608 95.8917 95.2608 102.666C95.2608 103.766 95.1169 104.827 94.8484 105.834Z" fill="#2C2C2C"/>
<path d="M27.02 78H15.8V75.87L18.71 73.59V63.75L15.2 62.91L16.4 60.51H27.62V62.64L24.71 64.92V74.76L28.22 75.6L27.02 78ZM42.4302 60.21C44.2502 60.21 45.8702 60.58 47.2902 61.32C48.7302 62.06 49.8402 63.08 50.6202 64.38C51.4202 65.68 51.8202 67.13 51.8202 68.73C51.8202 70.45 51.2102 72.05 49.9902 73.53C48.7902 74.99 47.2902 76.15 45.4902 77.01C43.6902 77.87 41.9602 78.3 40.3002 78.3C38.4802 78.3 36.8602 77.93 35.4402 77.19C34.0202 76.45 32.9102 75.43 32.1102 74.13C31.3102 72.83 30.9102 71.38 30.9102 69.78C30.9102 68.06 31.5102 66.47 32.7102 65.01C33.9302 63.53 35.4402 62.36 37.2402 61.5C39.0402 60.64 40.7702 60.21 42.4302 60.21ZM40.6902 63.93C38.4902 63.93 37.3902 65.4 37.3902 68.34C37.3902 70.14 37.7902 71.63 38.5902 72.81C39.3902 73.99 40.5402 74.58 42.0402 74.58C44.2402 74.58 45.3402 73.1 45.3402 70.14C45.3402 68.34 44.9402 66.86 44.1402 65.7C43.3402 64.52 42.1902 63.93 40.6902 63.93Z" fill="black"/>
<path d="M131.02 171H119.8V168.87L122.71 166.59V156.75L119.2 155.91L120.4 153.51H131.62V155.64L128.71 157.92V167.76L132.22 168.6L131.02 171ZM146.43 153.21C148.25 153.21 149.87 153.58 151.29 154.32C152.73 155.06 153.84 156.08 154.62 157.38C155.42 158.68 155.82 160.13 155.82 161.73C155.82 163.45 155.21 165.05 153.99 166.53C152.79 167.99 151.29 169.15 149.49 170.01C147.69 170.87 145.96 171.3 144.3 171.3C142.48 171.3 140.86 170.93 139.44 170.19C138.02 169.45 136.91 168.43 136.11 167.13C135.31 165.83 134.91 164.38 134.91 162.78C134.91 161.06 135.51 159.47 136.71 158.01C137.93 156.53 139.44 155.36 141.24 154.5C143.04 153.64 144.77 153.21 146.43 153.21ZM144.69 156.93C142.49 156.93 141.39 158.4 141.39 161.34C141.39 163.14 141.79 164.63 142.59 165.81C143.39 166.99 144.54 167.58 146.04 167.58C148.24 167.58 149.34 166.1 149.34 163.14C149.34 161.34 148.94 159.86 148.14 158.7C147.34 157.52 146.19 156.93 144.69 156.93Z" fill="black"/>
</svg>
