<svg width="166" height="226" viewBox="0 0 166 226" fill="none" xmlns="http://www.w3.org/2000/svg">
<rect x="2" y="2" width="162" height="222" rx="23" fill="#FFFAFB" stroke="black" stroke-width="4"/>
<path d="M30.9569 42.3659L19.4 28.9021L30.9569 15.3999L42.5138 28.9021L30.9569 42.3659Z" fill="#BC4749"/>
<path d="M136.957 210.366L125.4 196.902L136.957 183.4L148.514 196.902L136.957 210.366Z" fill="#BC4749"/>
<path d="M82.9353 133.049L65.6 112.853L82.9353 92.6001L100.271 112.853L82.9353 133.049Z" fill="#BC4749"/>
<path d="M27.02 78H15.8V75.87L18.71 73.59V63.75L15.2 62.91L16.4 60.51H27.62V62.64L24.71 64.92V74.76L28.22 75.6L27.02 78ZM42.4302 60.21C44.2502 60.21 45.8702 60.58 47.2902 61.32C48.7302 62.06 49.8402 63.08 50.6202 64.38C51.4202 65.68 51.8202 67.13 51.8202 68.73C51.8202 70.45 51.2102 72.05 49.9902 73.53C48.7902 74.99 47.2902 76.15 45.4902 77.01C43.6902 77.87 41.9602 78.3 40.3002 78.3C38.4802 78.3 36.8602 77.93 35.4402 77.19C34.0202 76.45 32.9102 75.43 32.1102 74.13C31.3102 72.83 30.9102 71.38 30.9102 69.78C30.9102 68.06 31.5102 66.47 32.7102 65.01C33.9302 63.53 35.4402 62.36 37.2402 61.5C39.0402 60.64 40.7702 60.21 42.4302 60.21ZM40.6902 63.93C38.4902 63.93 37.3902 65.4 37.3902 68.34C37.3902 70.14 37.7902 71.63 38.5902 72.81C39.3902 73.99 40.5402 74.58 42.0402 74.58C44.2402 74.58 45.3402 73.1 45.3402 70.14C45.3402 68.34 44.9402 66.86 44.1402 65.7C43.3402 64.52 42.1902 63.93 40.6902 63.93Z" fill="black"/>
<path d="M131.02 171H119.8V168.87L122.71 166.59V156.75L119.2 155.91L120.4 153.51H131.62V155.64L128.71 157.92V167.76L132.22 168.6L131.02 171ZM146.43 153.21C148.25 153.21 149.87 153.58 151.29 154.32C152.73 155.06 153.84 156.08 154.62 157.38C155.42 158.68 155.82 160.13 155.82 161.73C155.82 163.45 155.21 165.05 153.99 166.53C152.79 167.99 151.29 169.15 149.49 170.01C147.69 170.87 145.96 171.3 144.3 171.3C142.48 171.3 140.86 170.93 139.44 170.19C138.02 169.45 136.91 168.43 136.11 167.13C135.31 165.83 134.91 164.38 134.91 162.78C134.91 161.06 135.51 159.47 136.71 158.01C137.93 156.53 139.44 155.36 141.24 154.5C143.04 153.64 144.77 153.21 146.43 153.21ZM144.69 156.93C142.49 156.93 141.39 158.4 141.39 161.34C141.39 163.14 141.79 164.63 142.59 165.81C143.39 166.99 144.54 167.58 146.04 167.58C148.24 167.58 149.34 166.1 149.34 163.14C149.34 161.34 148.94 159.86 148.14 158.7C147.34 157.52 146.19 156.93 144.69 156.93Z" fill="black"/>
</svg>
