<svg width="166" height="226" viewBox="0 0 166 226" fill="none" xmlns="http://www.w3.org/2000/svg">
<rect x="2" y="2" width="162" height="222" rx="23" fill="#FFFAFB" stroke="black" stroke-width="4"/>
<path d="M17.8515 26.7506C14.5463 30.7854 13.7628 36.4153 17.3881 40.1022C21.3063 44.0871 27.2697 42.9324 30.8878 39.2527C34.5061 42.9323 40.4693 44.0872 44.3876 40.1022C48.0129 36.4153 47.2293 30.7854 43.9242 26.7506C40.3552 22.3937 35.4689 18.6502 30.8878 15.4038C26.3068 18.6502 21.4205 22.3937 17.8515 26.7506Z" fill="#2C2C2C"/>
<path d="M123.851 193.751C120.546 197.785 119.763 203.415 123.388 207.102C127.306 211.087 133.27 209.932 136.888 206.253C140.506 209.932 146.469 211.087 150.388 207.102C154.013 203.415 153.229 197.785 149.924 193.751C146.355 189.394 141.469 185.65 136.888 182.404C132.307 185.65 127.421 189.394 123.851 193.751Z" fill="#2C2C2C"/>
<path d="M63.2772 108.626C58.3195 114.678 57.1442 123.123 62.5821 128.653C68.4595 134.63 77.4045 132.898 82.8318 127.379C88.2591 132.898 97.204 134.63 103.081 128.653C108.519 123.123 107.344 114.678 102.386 108.626C97.0328 102.09 89.7033 96.4751 82.8318 91.6055C75.9603 96.4751 68.6308 102.09 63.2772 108.626Z" fill="#2C2C2C"/>
<path d="M27.02 78H15.8V75.87L18.71 73.59V63.75L15.2 62.91L16.4 60.51H27.62V62.64L24.71 64.92V74.76L28.22 75.6L27.02 78ZM42.4302 60.21C44.2502 60.21 45.8702 60.58 47.2902 61.32C48.7302 62.06 49.8402 63.08 50.6202 64.38C51.4202 65.68 51.8202 67.13 51.8202 68.73C51.8202 70.45 51.2102 72.05 49.9902 73.53C48.7902 74.99 47.2902 76.15 45.4902 77.01C43.6902 77.87 41.9602 78.3 40.3002 78.3C38.4802 78.3 36.8602 77.93 35.4402 77.19C34.0202 76.45 32.9102 75.43 32.1102 74.13C31.3102 72.83 30.9102 71.38 30.9102 69.78C30.9102 68.06 31.5102 66.47 32.7102 65.01C33.9302 63.53 35.4402 62.36 37.2402 61.5C39.0402 60.64 40.7702 60.21 42.4302 60.21ZM40.6902 63.93C38.4902 63.93 37.3902 65.4 37.3902 68.34C37.3902 70.14 37.7902 71.63 38.5902 72.81C39.3902 73.99 40.5402 74.58 42.0402 74.58C44.2402 74.58 45.3402 73.1 45.3402 70.14C45.3402 68.34 44.9402 66.86 44.1402 65.7C43.3402 64.52 42.1902 63.93 40.6902 63.93Z" fill="black"/>
<path d="M131.02 171H119.8V168.87L122.71 166.59V156.75L119.2 155.91L120.4 153.51H131.62V155.64L128.71 157.92V167.76L132.22 168.6L131.02 171ZM146.43 153.21C148.25 153.21 149.87 153.58 151.29 154.32C152.73 155.06 153.84 156.08 154.62 157.38C155.42 158.68 155.82 160.13 155.82 161.73C155.82 163.45 155.21 165.05 153.99 166.53C152.79 167.99 151.29 169.15 149.49 170.01C147.69 170.87 145.96 171.3 144.3 171.3C142.48 171.3 140.86 170.93 139.44 170.19C138.02 169.45 136.91 168.43 136.11 167.13C135.31 165.83 134.91 164.38 134.91 162.78C134.91 161.06 135.51 159.47 136.71 158.01C137.93 156.53 139.44 155.36 141.24 154.5C143.04 153.64 144.77 153.21 146.43 153.21ZM144.69 156.93C142.49 156.93 141.39 158.4 141.39 161.34C141.39 163.14 141.79 164.63 142.59 165.81C143.39 166.99 144.54 167.58 146.04 167.58C148.24 167.58 149.34 166.1 149.34 163.14C149.34 161.34 148.94 159.86 148.14 158.7C147.34 157.52 146.19 156.93 144.69 156.93Z" fill="black"/>
</svg>
