<svg width="60" height="60" viewBox="0 0 60 60" fill="none" xmlns="http://www.w3.org/2000/svg">
<g id="account">
<path id="icon" fill-rule="evenodd" clip-rule="evenodd" d="M30 5C16.2 5 5 16.2 5 30C5 43.8 16.2 55 30 55C43.8 55 55 43.8 55 30C55 16.2 43.8 5 30 5ZM45.9 42.075C42.325 37.725 33.65 36.25 30 36.25C26.35 36.25 17.675 37.725 14.1 42.075C11.55 38.725 10 34.55 10 30C10 18.975 18.975 10 30 10C41.025 10 50 18.975 50 30C50 34.55 48.45 38.725 45.9 42.075ZM21.25 23.75C21.25 18.9 25.15 15 30 15C34.85 15 38.75 18.9 38.75 23.75C38.75 28.6 34.85 32.5 30 32.5C25.15 32.5 21.25 28.6 21.25 23.75Z" fill="#FFFAFB"/>
</g>
</svg>
