<svg width="60" height="60" viewBox="0 0 60 60" fill="none" xmlns="http://www.w3.org/2000/svg">
<g id="settings">
<path id="icon" d="M48.575 32.45C48.675 31.65 48.75 30.85 48.75 30C48.75 29.15 48.675 28.35 48.575 27.55L53.85 23.425C54.325 23.05 54.45 22.375 54.15 21.825L49.15 13.175C48.85 12.625 48.175 12.425 47.625 12.625L41.4 15.125C40.1 14.125 38.7 13.3 37.175 12.675L36.225 6.05C36.15 5.45 35.625 5 35 5H25C24.375 5 23.85 5.45 23.775 6.05L22.825 12.675C21.3 13.3 19.9 14.15 18.6 15.125L12.375 12.625C11.8 12.4 11.15 12.625 10.85 13.175L5.85 21.825C5.525 22.375 5.675 23.05 6.15 23.425L11.425 27.55C11.325 28.35 11.25 29.175 11.25 30C11.25 30.825 11.325 31.65 11.425 32.45L6.15 36.575C5.675 36.95 5.55 37.625 5.85 38.175L10.85 46.825C11.15 47.375 11.825 47.575 12.375 47.375L18.6 44.875C19.9 45.875 21.3 46.7 22.825 47.325L23.775 53.95C23.85 54.55 24.375 55 25 55H35C35.625 55 36.15 54.55 36.225 53.95L37.175 47.325C38.7 46.7 40.1 45.85 41.4 44.875L47.625 47.375C48.2 47.6 48.85 47.375 49.15 46.825L54.15 38.175C54.45 37.625 54.325 36.95 53.85 36.575L48.575 32.45ZM30 38.75C25.175 38.75 21.25 34.825 21.25 30C21.25 25.175 25.175 21.25 30 21.25C34.825 21.25 38.75 25.175 38.75 30C38.75 34.825 34.825 38.75 30 38.75Z" fill="#FFFAFB"/>
</g>
</svg>
