<svg width="0" height="0" class="hidden">
  <symbol fill="none" xmlns="http://www.w3.org/2000/svg" viewBox="0 0 166 226" id="ace_clubs">
    <rect x="2" y="2" width="162" height="222" rx="23" fill="#FFFAFB" stroke="black" stroke-width="4"></rect>
    <path d="M38.8989 24.8898L38.3148 27.0823L40.5786 27.2359C44.8311 27.5244 48.1925 31.0676 48.1925 35.3944C48.1925 39.9107 44.5313 43.572 40.015 43.572C36.7963 43.572 34.0083 41.7126 32.6732 39.001L30.9963 35.5954L29.3194 39.001C27.9842 41.7126 25.1963 43.572 21.9776 43.572C17.4612 43.572 13.8 39.9107 13.8 35.3944C13.8 31.0676 17.1614 27.5244 21.414 27.2359L23.6777 27.0823L23.0936 24.8898C22.9146 24.2181 22.8187 23.5105 22.8187 22.7777C22.8187 18.2613 26.4799 14.6001 30.9963 14.6001C35.5126 14.6001 39.1738 18.2613 39.1738 22.7777C39.1738 23.5105 39.0779 24.2181 38.8989 24.8898Z" fill="#2C2C2C"></path>
    <path d="M144.899 191.89L144.315 194.082L146.579 194.236C150.831 194.524 154.193 198.068 154.193 202.394C154.193 206.911 150.531 210.572 146.015 210.572C142.796 210.572 140.008 208.713 138.673 206.001L136.996 202.595L135.319 206.001C133.984 208.713 131.196 210.572 127.978 210.572C123.461 210.572 119.8 206.911 119.8 202.394C119.8 198.068 123.161 194.524 127.414 194.236L129.678 194.082L129.094 191.89C128.915 191.218 128.819 190.511 128.819 189.778C128.819 185.261 132.48 181.6 136.996 181.6C141.513 181.6 145.174 185.261 145.174 189.778C145.174 190.511 145.078 191.218 144.899 191.89Z" fill="#2C2C2C"></path>
    <path d="M94.8484 105.834L93.9722 109.123L97.3679 109.354C103.747 109.786 108.789 115.101 108.789 121.591C108.789 128.366 103.297 133.858 96.5224 133.858C91.6944 133.858 87.5125 131.069 85.5097 127.001L82.9944 121.893L80.479 127.001C78.4763 131.069 74.2944 133.858 69.4664 133.858C62.6918 133.858 57.2 128.366 57.2 121.591C57.2 115.101 62.2422 109.786 68.6209 109.354L72.0166 109.123L71.1404 105.834C70.8719 104.827 70.728 103.766 70.728 102.666C70.728 95.8917 76.2199 90.3999 82.9944 90.3999C89.7689 90.3999 95.2607 95.8917 95.2607 102.666C95.2607 103.766 95.1168 104.827 94.8484 105.834Z" fill="#2C2C2C"></path>
    <path d="M44.39 78H31.97V75.87L35.54 74.01L34.01 70.23H25.25L24.02 73.29L28.22 75.6L27.02 78H17V75.87L20.51 73.26L27.71 55.38L34.13 53.85L42.47 74.19L45.59 75.6L44.39 78ZM29.57 59.34L26.36 67.38H32.84L29.57 59.34Z" fill="black"></path>
    <path d="M150.39 171H137.97V168.87L141.54 167.01L140.01 163.23H131.25L130.02 166.29L134.22 168.6L133.02 171H123V168.87L126.51 166.26L133.71 148.38L140.13 146.85L148.47 167.19L151.59 168.6L150.39 171ZM135.57 152.34L132.36 160.38H138.84L135.57 152.34Z" fill="black"></path>
  </symbol>
  <symbol fill="none" xmlns="http://www.w3.org/2000/svg" viewBox="0 0 166 226" id="ace_diamonds">
    <rect x="2" y="2" width="162" height="222" rx="23" fill="#FFFAFB" stroke="black" stroke-width="4"></rect>
    <path d="M30.9569 42.3659L19.4 28.9021L30.9569 15.3999L42.5137 28.9021L30.9569 42.3659Z" fill="#BC4749"></path>
    <path d="M136.957 210.366L125.4 196.902L136.957 183.4L148.514 196.902L136.957 210.366Z" fill="#BC4749"></path>
    <path d="M82.9353 133.049L65.6 112.853L82.9353 92.6001L100.271 112.853L82.9353 133.049Z" fill="#BC4749"></path>
    <path d="M44.39 78H31.97V75.87L35.54 74.01L34.01 70.23H25.25L24.02 73.29L28.22 75.6L27.02 78H17V75.87L20.51 73.26L27.71 55.38L34.13 53.85L42.47 74.19L45.59 75.6L44.39 78ZM29.57 59.34L26.36 67.38H32.84L29.57 59.34Z" fill="black"></path>
    <path d="M150.39 171H137.97V168.87L141.54 167.01L140.01 163.23H131.25L130.02 166.29L134.22 168.6L133.02 171H123V168.87L126.51 166.26L133.71 148.38L140.13 146.85L148.47 167.19L151.59 168.6L150.39 171ZM135.57 152.34L132.36 160.38H138.84L135.57 152.34Z" fill="black"></path>
  </symbol>
  <symbol fill="none" xmlns="http://www.w3.org/2000/svg" viewBox="0 0 166 226" id="ace_hearts">
    <rect x="2" y="2" width="162" height="222" rx="23" fill="#FFFAFB" stroke="black" stroke-width="4"></rect>
    <path d="M17.8515 32.2494C14.5463 28.2146 13.7628 22.5847 17.3881 18.8978C21.3063 14.9129 27.2696 16.0676 30.8878 19.7473C34.5061 16.0677 40.4693 14.9128 44.3876 18.8978C48.0129 22.5847 47.2293 28.2146 43.9242 32.2494C40.3552 36.6063 35.4689 40.3498 30.8878 43.5962C26.3068 40.3498 21.4205 36.6063 17.8515 32.2494Z" fill="#BC4749"></path>
    <path d="M123.851 199.249C120.546 195.215 119.763 189.585 123.388 185.898C127.306 181.913 133.27 183.068 136.888 186.747C140.506 183.068 146.469 181.913 150.388 185.898C154.013 189.585 153.229 195.215 149.924 199.249C146.355 203.606 141.469 207.35 136.888 210.596C132.307 207.35 127.421 203.606 123.851 199.249Z" fill="#BC4749"></path>
    <path d="M63.2772 116.374C58.3195 110.322 57.1441 101.877 62.5821 96.3469C68.4595 90.3696 77.4045 92.1017 82.8318 97.6212C88.2591 92.1018 97.204 90.3695 103.081 96.3469C108.519 101.877 107.344 110.322 102.386 116.374C97.0327 122.91 89.7033 128.525 82.8318 133.394C75.9602 128.525 68.6308 122.91 63.2772 116.374Z" fill="#BC4749"></path>
    <path d="M44.39 78H31.97V75.87L35.54 74.01L34.01 70.23H25.25L24.02 73.29L28.22 75.6L27.02 78H17V75.87L20.51 73.26L27.71 55.38L34.13 53.85L42.47 74.19L45.59 75.6L44.39 78ZM29.57 59.34L26.36 67.38H32.84L29.57 59.34Z" fill="black"></path>
    <path d="M150.39 171H137.97V168.87L141.54 167.01L140.01 163.23H131.25L130.02 166.29L134.22 168.6L133.02 171H123V168.87L126.51 166.26L133.71 148.38L140.13 146.85L148.47 167.19L151.59 168.6L150.39 171ZM135.57 152.34L132.36 160.38H138.84L135.57 152.34Z" fill="black"></path>
  </symbol>
  <symbol fill="none" xmlns="http://www.w3.org/2000/svg" viewBox="0 0 166 226" id="ace_spades">
    <rect x="2" y="2" width="162" height="222" rx="23" fill="#FFFAFB" stroke="black" stroke-width="4"></rect>
    <path d="M17.8515 26.7506C14.5463 30.7854 13.7628 36.4153 17.3881 40.1022C21.3063 44.0871 27.2696 42.9324 30.8878 39.2527C34.5061 42.9323 40.4693 44.0872 44.3876 40.1022C48.0129 36.4153 47.2293 30.7854 43.9242 26.7506C40.3552 22.3937 35.4689 18.6502 30.8878 15.4038C26.3068 18.6502 21.4205 22.3937 17.8515 26.7506Z" fill="#2C2C2C"></path>
    <path d="M123.851 193.751C120.546 197.785 119.763 203.415 123.388 207.102C127.306 211.087 133.27 209.932 136.888 206.253C140.506 209.932 146.469 211.087 150.388 207.102C154.013 203.415 153.229 197.785 149.924 193.751C146.355 189.394 141.469 185.65 136.888 182.404C132.307 185.65 127.421 189.394 123.851 193.751Z" fill="#2C2C2C"></path>
    <path d="M63.2772 108.626C58.3195 114.678 57.1441 123.123 62.5821 128.653C68.4595 134.63 77.4045 132.898 82.8318 127.379C88.2591 132.898 97.204 134.63 103.081 128.653C108.519 123.123 107.344 114.678 102.386 108.626C97.0327 102.09 89.7033 96.4751 82.8318 91.6055C75.9602 96.4751 68.6308 102.09 63.2772 108.626Z" fill="#2C2C2C"></path>
    <path d="M44.39 78H31.97V75.87L35.54 74.01L34.01 70.23H25.25L24.02 73.29L28.22 75.6L27.02 78H17V75.87L20.51 73.26L27.71 55.38L34.13 53.85L42.47 74.19L45.59 75.6L44.39 78ZM29.57 59.34L26.36 67.38H32.84L29.57 59.34Z" fill="black"></path>
    <path d="M150.39 171H137.97V168.87L141.54 167.01L140.01 163.23H131.25L130.02 166.29L134.22 168.6L133.02 171H123V168.87L126.51 166.26L133.71 148.38L140.13 146.85L148.47 167.19L151.59 168.6L150.39 171ZM135.57 152.34L132.36 160.38H138.84L135.57 152.34Z" fill="black"></path>
  </symbol>
  <symbol fill="none" xmlns="http://www.w3.org/2000/svg" viewBox="0 0 166 226" id="card_backside">
    <rect x="2" y="2" width="162" height="222" rx="23" fill="#3D405B" stroke="#FFFAFB" stroke-width="4"></rect>
  </symbol>
  <symbol fill="none" xmlns="http://www.w3.org/2000/svg" viewBox="0 0 166 226" id="jack_clubs">
    <rect x="2" y="2" width="162" height="222" rx="23" fill="#FFFAFB" stroke="black" stroke-width="4"></rect>
    <path d="M38.8989 24.8898L38.3148 27.0823L40.5786 27.2359C44.8311 27.5244 48.1925 31.0676 48.1925 35.3944C48.1925 39.9107 44.5313 43.572 40.0149 43.572C36.7962 43.572 34.0083 41.7126 32.6731 39.001L30.9962 35.5954L29.3193 39.001C27.9842 41.7126 25.1963 43.572 21.9776 43.572C17.4612 43.572 13.8 39.9107 13.8 35.3944C13.8 31.0676 17.1614 27.5244 21.4139 27.2359L23.6777 27.0823L23.0936 24.8898C22.9146 24.2181 22.8187 23.5105 22.8187 22.7777C22.8187 18.2613 26.4799 14.6001 30.9962 14.6001C35.5126 14.6001 39.1738 18.2613 39.1738 22.7777C39.1738 23.5105 39.0779 24.2181 38.8989 24.8898Z" fill="#2C2C2C"></path>
    <path d="M144.899 191.89L144.315 194.082L146.579 194.236C150.831 194.524 154.193 198.068 154.193 202.394C154.193 206.911 150.531 210.572 146.015 210.572C142.796 210.572 140.008 208.713 138.673 206.001L136.996 202.595L135.319 206.001C133.984 208.713 131.196 210.572 127.978 210.572C123.461 210.572 119.8 206.911 119.8 202.394C119.8 198.068 123.161 194.524 127.414 194.236L129.678 194.082L129.094 191.89C128.915 191.218 128.819 190.511 128.819 189.778C128.819 185.261 132.48 181.6 136.996 181.6C141.513 181.6 145.174 185.261 145.174 189.778C145.174 190.511 145.078 191.218 144.899 191.89Z" fill="#2C2C2C"></path>
    <path d="M94.8484 105.834L93.9722 109.123L97.3679 109.354C103.747 109.786 108.789 115.101 108.789 121.591C108.789 128.366 103.297 133.858 96.5224 133.858C91.6944 133.858 87.5125 131.069 85.5098 127.001L82.9944 121.893L80.4791 127.001C78.4763 131.069 74.2944 133.858 69.4664 133.858C62.6918 133.858 57.2 128.366 57.2 121.591C57.2 115.101 62.2422 109.786 68.6209 109.354L72.0166 109.123L71.1404 105.834C70.8719 104.827 70.728 103.766 70.728 102.666C70.728 95.8917 76.2199 90.3999 82.9944 90.3999C89.7689 90.3999 95.2608 95.8917 95.2608 102.666C95.2608 103.766 95.1169 104.827 94.8484 105.834Z" fill="#2C2C2C"></path>
    <path d="M33.87 75.03C33.87 75.83 33.89 76.57 33.93 77.25C33.99 77.91 34.06 78.36 34.14 78.6L26.73 85.92L24.39 84.12C25.59 82.7 26.39 81.49 26.79 80.49C27.21 79.49 27.42 78.25 27.42 76.77V57.69L23.4 56.82L24.6 54.42H36.72V56.55L33.87 58.77V75.03Z" fill="black"></path>
    <path d="M139.87 168.03C139.87 168.83 139.89 169.57 139.93 170.25C139.99 170.91 140.06 171.36 140.14 171.6L132.73 178.92L130.39 177.12C131.59 175.7 132.39 174.49 132.79 173.49C133.21 172.49 133.42 171.25 133.42 169.77V150.69L129.4 149.82L130.6 147.42H142.72V149.55L139.87 151.77V168.03Z" fill="black"></path>
  </symbol>
  <symbol fill="none" xmlns="http://www.w3.org/2000/svg" viewBox="0 0 166 226" id="jack_diamonds">
    <rect x="2" y="2" width="162" height="222" rx="23" fill="#FFFAFB" stroke="black" stroke-width="4"></rect>
    <path d="M30.9569 42.3659L19.4 28.9021L30.9569 15.3999L42.5138 28.9021L30.9569 42.3659Z" fill="#BC4749"></path>
    <path d="M136.957 210.366L125.4 196.902L136.957 183.4L148.514 196.902L136.957 210.366Z" fill="#BC4749"></path>
    <path d="M82.9353 133.049L65.6 112.853L82.9353 92.6001L100.271 112.853L82.9353 133.049Z" fill="#BC4749"></path>
    <path d="M33.87 75.03C33.87 75.83 33.89 76.57 33.93 77.25C33.99 77.91 34.06 78.36 34.14 78.6L26.73 85.92L24.39 84.12C25.59 82.7 26.39 81.49 26.79 80.49C27.21 79.49 27.42 78.25 27.42 76.77V57.69L23.4 56.82L24.6 54.42H36.72V56.55L33.87 58.77V75.03Z" fill="black"></path>
    <path d="M139.87 168.03C139.87 168.83 139.89 169.57 139.93 170.25C139.99 170.91 140.06 171.36 140.14 171.6L132.73 178.92L130.39 177.12C131.59 175.7 132.39 174.49 132.79 173.49C133.21 172.49 133.42 171.25 133.42 169.77V150.69L129.4 149.82L130.6 147.42H142.72V149.55L139.87 151.77V168.03Z" fill="black"></path>
  </symbol>
  <symbol fill="none" xmlns="http://www.w3.org/2000/svg" viewBox="0 0 166 226" id="jack_hearts">
    <rect x="2" y="2" width="162" height="222" rx="23" fill="#FFFAFB" stroke="black" stroke-width="4"></rect>
    <path d="M17.8515 32.2494C14.5463 28.2146 13.7628 22.5847 17.3881 18.8978C21.3063 14.9129 27.2697 16.0676 30.8878 19.7473C34.5061 16.0677 40.4693 14.9128 44.3876 18.8978C48.0129 22.5847 47.2293 28.2146 43.9242 32.2494C40.3552 36.6063 35.4689 40.3498 30.8878 43.5962C26.3068 40.3498 21.4205 36.6063 17.8515 32.2494Z" fill="#BC4749"></path>
    <path d="M123.851 199.249C120.546 195.215 119.763 189.585 123.388 185.898C127.306 181.913 133.27 183.068 136.888 186.747C140.506 183.068 146.469 181.913 150.388 185.898C154.013 189.585 153.229 195.215 149.924 199.249C146.355 203.606 141.469 207.35 136.888 210.596C132.307 207.35 127.421 203.606 123.851 199.249Z" fill="#BC4749"></path>
    <path d="M63.2772 116.374C58.3195 110.322 57.1442 101.877 62.5821 96.3469C68.4595 90.3696 77.4045 92.1017 82.8318 97.6212C88.2591 92.1018 97.204 90.3695 103.081 96.3469C108.519 101.877 107.344 110.322 102.386 116.374C97.0328 122.91 89.7033 128.525 82.8318 133.394C75.9603 128.525 68.6308 122.91 63.2772 116.374Z" fill="#BC4749"></path>
    <path d="M33.87 75.03C33.87 75.83 33.89 76.57 33.93 77.25C33.99 77.91 34.06 78.36 34.14 78.6L26.73 85.92L24.39 84.12C25.59 82.7 26.39 81.49 26.79 80.49C27.21 79.49 27.42 78.25 27.42 76.77V57.69L23.4 56.82L24.6 54.42H36.72V56.55L33.87 58.77V75.03Z" fill="black"></path>
    <path d="M139.87 168.03C139.87 168.83 139.89 169.57 139.93 170.25C139.99 170.91 140.06 171.36 140.14 171.6L132.73 178.92L130.39 177.12C131.59 175.7 132.39 174.49 132.79 173.49C133.21 172.49 133.42 171.25 133.42 169.77V150.69L129.4 149.82L130.6 147.42H142.72V149.55L139.87 151.77V168.03Z" fill="black"></path>
  </symbol>
  <symbol fill="none" xmlns="http://www.w3.org/2000/svg" viewBox="0 0 166 226" id="jack_spades">
    <rect x="2" y="2" width="162" height="222" rx="23" fill="#FFFAFB" stroke="black" stroke-width="4"></rect>
    <path d="M17.8515 26.7506C14.5463 30.7854 13.7628 36.4153 17.3881 40.1022C21.3063 44.0871 27.2697 42.9324 30.8878 39.2527C34.5061 42.9323 40.4693 44.0872 44.3876 40.1022C48.0129 36.4153 47.2293 30.7854 43.9242 26.7506C40.3552 22.3937 35.4689 18.6502 30.8878 15.4038C26.3068 18.6502 21.4205 22.3937 17.8515 26.7506Z" fill="#2C2C2C"></path>
    <path d="M123.851 193.751C120.546 197.785 119.763 203.415 123.388 207.102C127.306 211.087 133.27 209.932 136.888 206.253C140.506 209.932 146.469 211.087 150.388 207.102C154.013 203.415 153.229 197.785 149.924 193.751C146.355 189.394 141.469 185.65 136.888 182.404C132.307 185.65 127.421 189.394 123.851 193.751Z" fill="#2C2C2C"></path>
    <path d="M63.2772 108.626C58.3195 114.678 57.1442 123.123 62.5821 128.653C68.4595 134.63 77.4045 132.898 82.8318 127.379C88.2591 132.898 97.204 134.63 103.081 128.653C108.519 123.123 107.344 114.678 102.386 108.626C97.0328 102.09 89.7033 96.4751 82.8318 91.6055C75.9603 96.4751 68.6308 102.09 63.2772 108.626Z" fill="#2C2C2C"></path>
    <path d="M33.87 75.03C33.87 75.83 33.89 76.57 33.93 77.25C33.99 77.91 34.06 78.36 34.14 78.6L26.73 85.92L24.39 84.12C25.59 82.7 26.39 81.49 26.79 80.49C27.21 79.49 27.42 78.25 27.42 76.77V57.69L23.4 56.82L24.6 54.42H36.72V56.55L33.87 58.77V75.03Z" fill="black"></path>
    <path d="M139.87 168.03C139.87 168.83 139.89 169.57 139.93 170.25C139.99 170.91 140.06 171.36 140.14 171.6L132.73 178.92L130.39 177.12C131.59 175.7 132.39 174.49 132.79 173.49C133.21 172.49 133.42 171.25 133.42 169.77V150.69L129.4 149.82L130.6 147.42H142.72V149.55L139.87 151.77V168.03Z" fill="black"></path>
  </symbol>
  <symbol fill="none" xmlns="http://www.w3.org/2000/svg" viewBox="0 0 166 226" id="king_clubs">
    <rect x="2" y="2" width="162" height="222" rx="23" fill="#FFFAFB" stroke="black" stroke-width="4"></rect>
    <path d="M38.8989 24.8898L38.3148 27.0823L40.5786 27.2359C44.8311 27.5244 48.1925 31.0676 48.1925 35.3944C48.1925 39.9107 44.5313 43.572 40.015 43.572C36.7963 43.572 34.0083 41.7126 32.6732 39.001L30.9963 35.5954L29.3194 39.001C27.9842 41.7126 25.1963 43.572 21.9776 43.572C17.4612 43.572 13.8 39.9107 13.8 35.3944C13.8 31.0676 17.1614 27.5244 21.414 27.2359L23.6777 27.0823L23.0936 24.8898C22.9146 24.2181 22.8187 23.5105 22.8187 22.7777C22.8187 18.2613 26.4799 14.6001 30.9963 14.6001C35.5126 14.6001 39.1738 18.2613 39.1738 22.7777C39.1738 23.5105 39.0779 24.2181 38.8989 24.8898Z" fill="#2C2C2C"></path>
    <path d="M144.899 191.89L144.315 194.082L146.579 194.236C150.831 194.524 154.193 198.068 154.193 202.394C154.193 206.911 150.531 210.572 146.015 210.572C142.796 210.572 140.008 208.713 138.673 206.001L136.996 202.595L135.319 206.001C133.984 208.713 131.196 210.572 127.978 210.572C123.461 210.572 119.8 206.911 119.8 202.394C119.8 198.068 123.161 194.524 127.414 194.236L129.678 194.082L129.094 191.89C128.915 191.218 128.819 190.511 128.819 189.778C128.819 185.261 132.48 181.6 136.996 181.6C141.513 181.6 145.174 185.261 145.174 189.778C145.174 190.511 145.078 191.218 144.899 191.89Z" fill="#2C2C2C"></path>
    <path d="M94.8484 105.834L93.9722 109.123L97.3679 109.354C103.747 109.786 108.789 115.101 108.789 121.591C108.789 128.366 103.297 133.858 96.5224 133.858C91.6944 133.858 87.5125 131.069 85.5097 127.001L82.9944 121.893L80.479 127.001C78.4763 131.069 74.2944 133.858 69.4664 133.858C62.6918 133.858 57.2 128.366 57.2 121.591C57.2 115.101 62.2422 109.786 68.6209 109.354L72.0166 109.123L71.1404 105.834C70.8719 104.827 70.728 103.766 70.728 102.666C70.728 95.8917 76.2199 90.3999 82.9944 90.3999C89.7689 90.3999 95.2607 95.8917 95.2607 102.666C95.2607 103.766 95.1169 104.827 94.8484 105.834Z" fill="#2C2C2C"></path>
    <path d="M30.92 75.57L29.72 77.97H18.2V75.84L21.02 73.38V57.72L17.6 56.82L18.8 54.42H30.32V56.55L27.47 59.04V74.67L30.92 75.57ZM43.34 77.97H36.41L28.31 66.15L36.65 58.77L33.14 56.79L34.34 54.39H43.91V56.52L34.7 64.65L41.36 74.13L44.54 75.57L43.34 77.97Z" fill="black"></path>
    <path d="M136.92 168.57L135.72 170.97H124.2V168.84L127.02 166.38V150.72L123.6 149.82L124.8 147.42H136.32V149.55L133.47 152.04V167.67L136.92 168.57ZM149.34 170.97H142.41L134.31 159.15L142.65 151.77L139.14 149.79L140.34 147.39H149.91V149.52L140.7 157.65L147.36 167.13L150.54 168.57L149.34 170.97Z" fill="black"></path>
  </symbol>
  <symbol fill="none" xmlns="http://www.w3.org/2000/svg" viewBox="0 0 166 226" id="king_diamonds">
    <rect x="2" y="2" width="162" height="222" rx="23" fill="#FFFAFB" stroke="black" stroke-width="4"></rect>
    <path d="M30.9569 42.3659L19.4 28.9021L30.9569 15.3999L42.5137 28.9021L30.9569 42.3659Z" fill="#BC4749"></path>
    <path d="M136.957 210.366L125.4 196.902L136.957 183.4L148.514 196.902L136.957 210.366Z" fill="#BC4749"></path>
    <path d="M82.9353 133.049L65.6 112.853L82.9353 92.6001L100.271 112.853L82.9353 133.049Z" fill="#BC4749"></path>
    <path d="M30.92 75.57L29.72 77.97H18.2V75.84L21.02 73.38V57.72L17.6 56.82L18.8 54.42H30.32V56.55L27.47 59.04V74.67L30.92 75.57ZM43.34 77.97H36.41L28.31 66.15L36.65 58.77L33.14 56.79L34.34 54.39H43.91V56.52L34.7 64.65L41.36 74.13L44.54 75.57L43.34 77.97Z" fill="black"></path>
    <path d="M136.92 168.57L135.72 170.97H124.2V168.84L127.02 166.38V150.72L123.6 149.82L124.8 147.42H136.32V149.55L133.47 152.04V167.67L136.92 168.57ZM149.34 170.97H142.41L134.31 159.15L142.65 151.77L139.14 149.79L140.34 147.39H149.91V149.52L140.7 157.65L147.36 167.13L150.54 168.57L149.34 170.97Z" fill="black"></path>
  </symbol>
  <symbol fill="none" xmlns="http://www.w3.org/2000/svg" viewBox="0 0 166 226" id="king_hearts">
    <rect x="2" y="2" width="162" height="222" rx="23" fill="#FFFAFB" stroke="black" stroke-width="4"></rect>
    <path d="M17.8515 32.2494C14.5463 28.2146 13.7628 22.5847 17.3881 18.8978C21.3063 14.9129 27.2697 16.0676 30.8878 19.7473C34.5061 16.0677 40.4693 14.9128 44.3876 18.8978C48.0129 22.5847 47.2293 28.2146 43.9242 32.2494C40.3552 36.6063 35.4689 40.3498 30.8878 43.5962C26.3068 40.3498 21.4205 36.6063 17.8515 32.2494Z" fill="#BC4749"></path>
    <path d="M123.851 199.249C120.546 195.215 119.763 189.585 123.388 185.898C127.306 181.913 133.27 183.068 136.888 186.747C140.506 183.068 146.469 181.913 150.388 185.898C154.013 189.585 153.229 195.215 149.924 199.249C146.355 203.606 141.469 207.35 136.888 210.596C132.307 207.35 127.421 203.606 123.851 199.249Z" fill="#BC4749"></path>
    <path d="M63.2772 116.374C58.3195 110.322 57.1441 101.877 62.5821 96.3469C68.4595 90.3696 77.4045 92.1017 82.8318 97.6212C88.2591 92.1018 97.204 90.3695 103.081 96.3469C108.519 101.877 107.344 110.322 102.386 116.374C97.0327 122.91 89.7033 128.525 82.8318 133.394C75.9602 128.525 68.6308 122.91 63.2772 116.374Z" fill="#BC4749"></path>
    <path d="M30.92 75.57L29.72 77.97H18.2V75.84L21.02 73.38V57.72L17.6 56.82L18.8 54.42H30.32V56.55L27.47 59.04V74.67L30.92 75.57ZM43.34 77.97H36.41L28.31 66.15L36.65 58.77L33.14 56.79L34.34 54.39H43.91V56.52L34.7 64.65L41.36 74.13L44.54 75.57L43.34 77.97Z" fill="black"></path>
    <path d="M136.92 168.57L135.72 170.97H124.2V168.84L127.02 166.38V150.72L123.6 149.82L124.8 147.42H136.32V149.55L133.47 152.04V167.67L136.92 168.57ZM149.34 170.97H142.41L134.31 159.15L142.65 151.77L139.14 149.79L140.34 147.39H149.91V149.52L140.7 157.65L147.36 167.13L150.54 168.57L149.34 170.97Z" fill="black"></path>
  </symbol>
  <symbol fill="none" xmlns="http://www.w3.org/2000/svg" viewBox="0 0 166 226" id="king_spades">
    <rect x="2" y="2" width="162" height="222" rx="23" fill="#FFFAFB" stroke="black" stroke-width="4"></rect>
    <path d="M17.8515 26.7506C14.5463 30.7854 13.7628 36.4153 17.3881 40.1022C21.3063 44.0871 27.2697 42.9324 30.8878 39.2527C34.5061 42.9323 40.4693 44.0872 44.3876 40.1022C48.0129 36.4153 47.2293 30.7854 43.9242 26.7506C40.3552 22.3937 35.4689 18.6502 30.8878 15.4038C26.3068 18.6502 21.4205 22.3937 17.8515 26.7506Z" fill="#2C2C2C"></path>
    <path d="M123.851 193.751C120.546 197.785 119.763 203.415 123.388 207.102C127.306 211.087 133.27 209.932 136.888 206.253C140.506 209.932 146.469 211.087 150.388 207.102C154.013 203.415 153.229 197.785 149.924 193.751C146.355 189.394 141.469 185.65 136.888 182.404C132.307 185.65 127.421 189.394 123.851 193.751Z" fill="#2C2C2C"></path>
    <path d="M63.2772 108.626C58.3195 114.678 57.1441 123.123 62.5821 128.653C68.4595 134.63 77.4045 132.898 82.8318 127.379C88.2591 132.898 97.204 134.63 103.081 128.653C108.519 123.123 107.344 114.678 102.386 108.626C97.0327 102.09 89.7033 96.4751 82.8318 91.6055C75.9602 96.4751 68.6308 102.09 63.2772 108.626Z" fill="#2C2C2C"></path>
    <path d="M30.92 75.57L29.72 77.97H18.2V75.84L21.02 73.38V57.72L17.6 56.82L18.8 54.42H30.32V56.55L27.47 59.04V74.67L30.92 75.57ZM43.34 77.97H36.41L28.31 66.15L36.65 58.77L33.14 56.79L34.34 54.39H43.91V56.52L34.7 64.65L41.36 74.13L44.54 75.57L43.34 77.97Z" fill="black"></path>
    <path d="M136.92 168.57L135.72 170.97H124.2V168.84L127.02 166.38V150.72L123.6 149.82L124.8 147.42H136.32V149.55L133.47 152.04V167.67L136.92 168.57ZM149.34 170.97H142.41L134.31 159.15L142.65 151.77L139.14 149.79L140.34 147.39H149.91V149.52L140.7 157.65L147.36 167.13L150.54 168.57L149.34 170.97Z" fill="black"></path>
  </symbol>
  <symbol fill="none" xmlns="http://www.w3.org/2000/svg" viewBox="0 0 166 226" id="nine_clubs">
    <rect x="2" y="2" width="162" height="222" rx="23" fill="#FFFAFB" stroke="black" stroke-width="4"></rect>
    <path d="M38.8989 24.8898L38.3148 27.0823L40.5786 27.2359C44.8311 27.5244 48.1925 31.0676 48.1925 35.3944C48.1925 39.9107 44.5313 43.572 40.0149 43.572C36.7962 43.572 34.0083 41.7126 32.6731 39.001L30.9962 35.5954L29.3193 39.001C27.9842 41.7126 25.1963 43.572 21.9776 43.572C17.4612 43.572 13.8 39.9107 13.8 35.3944C13.8 31.0676 17.1614 27.5244 21.4139 27.2359L23.6777 27.0823L23.0936 24.8898C22.9146 24.2181 22.8187 23.5105 22.8187 22.7777C22.8187 18.2613 26.4799 14.6001 30.9962 14.6001C35.5126 14.6001 39.1738 18.2613 39.1738 22.7777C39.1738 23.5105 39.0779 24.2181 38.8989 24.8898Z" fill="#2C2C2C"></path>
    <path d="M144.899 191.89L144.315 194.082L146.579 194.236C150.831 194.524 154.193 198.068 154.193 202.394C154.193 206.911 150.531 210.572 146.015 210.572C142.796 210.572 140.008 208.713 138.673 206.001L136.996 202.595L135.319 206.001C133.984 208.713 131.196 210.572 127.978 210.572C123.461 210.572 119.8 206.911 119.8 202.394C119.8 198.068 123.161 194.524 127.414 194.236L129.678 194.082L129.094 191.89C128.915 191.218 128.819 190.511 128.819 189.778C128.819 185.261 132.48 181.6 136.996 181.6C141.513 181.6 145.174 185.261 145.174 189.778C145.174 190.511 145.078 191.218 144.899 191.89Z" fill="#2C2C2C"></path>
    <path d="M94.8484 105.834L93.9722 109.123L97.3679 109.354C103.747 109.786 108.789 115.101 108.789 121.591C108.789 128.366 103.297 133.858 96.5224 133.858C91.6944 133.858 87.5125 131.069 85.5098 127.001L82.9944 121.893L80.4791 127.001C78.4763 131.069 74.2944 133.858 69.4664 133.858C62.6918 133.858 57.2 128.366 57.2 121.591C57.2 115.101 62.2422 109.786 68.6209 109.354L72.0166 109.123L71.1404 105.834C70.8719 104.827 70.728 103.766 70.728 102.666C70.728 95.8917 76.2199 90.3999 82.9944 90.3999C89.7689 90.3999 95.2608 95.8917 95.2608 102.666C95.2608 103.766 95.1169 104.827 94.8484 105.834Z" fill="#2C2C2C"></path>
    <path d="M31.45 60.21C33.13 60.21 34.65 60.62 36.01 61.44C37.37 62.24 38.44 63.37 39.22 64.83C40 66.29 40.39 67.96 40.39 69.84C40.39 71.7 39.94 73.5 39.04 75.24C38.14 76.96 36.54 78.72 34.24 80.52C31.96 82.34 28.84 84.14 24.88 85.92L23.56 83.49C26.14 81.97 28.18 80.53 29.68 79.17C31.2 77.83 32.28 76.49 32.92 75.15C33.58 73.81 33.91 72.36 33.91 70.8C33.91 69.62 33.74 68.51 33.4 67.47C33.08 66.41 32.59 65.56 31.93 64.92C31.29 64.26 30.51 63.93 29.59 63.93C27.85 63.93 26.98 65.17 26.98 67.65C26.98 69.47 27.4 70.96 28.24 72.12C29.1 73.28 30.17 74.17 31.45 74.79L29.92 77.34C28.28 77.34 26.73 76.98 25.27 76.26C23.83 75.54 22.67 74.58 21.79 73.38C20.93 72.16 20.5 70.85 20.5 69.45C20.5 67.89 21.03 66.4 22.09 64.98C23.15 63.54 24.53 62.39 26.23 61.53C27.93 60.65 29.67 60.21 31.45 60.21Z" fill="black"></path>
    <path d="M137.45 153.21C139.13 153.21 140.65 153.62 142.01 154.44C143.37 155.24 144.44 156.37 145.22 157.83C146 159.29 146.39 160.96 146.39 162.84C146.39 164.7 145.94 166.5 145.04 168.24C144.14 169.96 142.54 171.72 140.24 173.52C137.96 175.34 134.84 177.14 130.88 178.92L129.56 176.49C132.14 174.97 134.18 173.53 135.68 172.17C137.2 170.83 138.28 169.49 138.92 168.15C139.58 166.81 139.91 165.36 139.91 163.8C139.91 162.62 139.74 161.51 139.4 160.47C139.08 159.41 138.59 158.56 137.93 157.92C137.29 157.26 136.51 156.93 135.59 156.93C133.85 156.93 132.98 158.17 132.98 160.65C132.98 162.47 133.4 163.96 134.24 165.12C135.1 166.28 136.17 167.17 137.45 167.79L135.92 170.34C134.28 170.34 132.73 169.98 131.27 169.26C129.83 168.54 128.67 167.58 127.79 166.38C126.93 165.16 126.5 163.85 126.5 162.45C126.5 160.89 127.03 159.4 128.09 157.98C129.15 156.54 130.53 155.39 132.23 154.53C133.93 153.65 135.67 153.21 137.45 153.21Z" fill="black"></path>
  </symbol>
  <symbol fill="none" xmlns="http://www.w3.org/2000/svg" viewBox="0 0 166 226" id="nine_diamonds">
    <rect x="2" y="2" width="162" height="222" rx="23" fill="#FFFAFB" stroke="black" stroke-width="4"></rect>
    <path d="M30.9569 42.3659L19.4 28.9021L30.9569 15.3999L42.5138 28.9021L30.9569 42.3659Z" fill="#BC4749"></path>
    <path d="M136.957 210.366L125.4 196.902L136.957 183.4L148.514 196.902L136.957 210.366Z" fill="#BC4749"></path>
    <path d="M82.9353 133.049L65.6 112.853L82.9353 92.6001L100.271 112.853L82.9353 133.049Z" fill="#BC4749"></path>
    <path d="M31.45 60.21C33.13 60.21 34.65 60.62 36.01 61.44C37.37 62.24 38.44 63.37 39.22 64.83C40 66.29 40.39 67.96 40.39 69.84C40.39 71.7 39.94 73.5 39.04 75.24C38.14 76.96 36.54 78.72 34.24 80.52C31.96 82.34 28.84 84.14 24.88 85.92L23.56 83.49C26.14 81.97 28.18 80.53 29.68 79.17C31.2 77.83 32.28 76.49 32.92 75.15C33.58 73.81 33.91 72.36 33.91 70.8C33.91 69.62 33.74 68.51 33.4 67.47C33.08 66.41 32.59 65.56 31.93 64.92C31.29 64.26 30.51 63.93 29.59 63.93C27.85 63.93 26.98 65.17 26.98 67.65C26.98 69.47 27.4 70.96 28.24 72.12C29.1 73.28 30.17 74.17 31.45 74.79L29.92 77.34C28.28 77.34 26.73 76.98 25.27 76.26C23.83 75.54 22.67 74.58 21.79 73.38C20.93 72.16 20.5 70.85 20.5 69.45C20.5 67.89 21.03 66.4 22.09 64.98C23.15 63.54 24.53 62.39 26.23 61.53C27.93 60.65 29.67 60.21 31.45 60.21Z" fill="black"></path>
    <path d="M137.45 153.21C139.13 153.21 140.65 153.62 142.01 154.44C143.37 155.24 144.44 156.37 145.22 157.83C146 159.29 146.39 160.96 146.39 162.84C146.39 164.7 145.94 166.5 145.04 168.24C144.14 169.96 142.54 171.72 140.24 173.52C137.96 175.34 134.84 177.14 130.88 178.92L129.56 176.49C132.14 174.97 134.18 173.53 135.68 172.17C137.2 170.83 138.28 169.49 138.92 168.15C139.58 166.81 139.91 165.36 139.91 163.8C139.91 162.62 139.74 161.51 139.4 160.47C139.08 159.41 138.59 158.56 137.93 157.92C137.29 157.26 136.51 156.93 135.59 156.93C133.85 156.93 132.98 158.17 132.98 160.65C132.98 162.47 133.4 163.96 134.24 165.12C135.1 166.28 136.17 167.17 137.45 167.79L135.92 170.34C134.28 170.34 132.73 169.98 131.27 169.26C129.83 168.54 128.67 167.58 127.79 166.38C126.93 165.16 126.5 163.85 126.5 162.45C126.5 160.89 127.03 159.4 128.09 157.98C129.15 156.54 130.53 155.39 132.23 154.53C133.93 153.65 135.67 153.21 137.45 153.21Z" fill="black"></path>
  </symbol>
  <symbol fill="none" xmlns="http://www.w3.org/2000/svg" viewBox="0 0 166 226" id="nine_hearts">
    <rect x="2" y="2" width="162" height="222" rx="23" fill="#FFFAFB" stroke="black" stroke-width="4"></rect>
    <path d="M17.8515 32.2494C14.5463 28.2146 13.7628 22.5847 17.3881 18.8978C21.3063 14.9129 27.2697 16.0676 30.8878 19.7473C34.5061 16.0677 40.4693 14.9128 44.3876 18.8978C48.0129 22.5847 47.2293 28.2146 43.9242 32.2494C40.3552 36.6063 35.4689 40.3498 30.8878 43.5962C26.3068 40.3498 21.4205 36.6063 17.8515 32.2494Z" fill="#BC4749"></path>
    <path d="M123.851 199.249C120.546 195.215 119.763 189.585 123.388 185.898C127.306 181.913 133.27 183.068 136.888 186.747C140.506 183.068 146.469 181.913 150.388 185.898C154.013 189.585 153.229 195.215 149.924 199.249C146.355 203.606 141.469 207.35 136.888 210.596C132.307 207.35 127.421 203.606 123.851 199.249Z" fill="#BC4749"></path>
    <path d="M63.2772 116.374C58.3195 110.322 57.1442 101.877 62.5821 96.3469C68.4595 90.3696 77.4045 92.1017 82.8318 97.6212C88.2591 92.1018 97.204 90.3695 103.081 96.3469C108.519 101.877 107.344 110.322 102.386 116.374C97.0328 122.91 89.7033 128.525 82.8318 133.394C75.9603 128.525 68.6308 122.91 63.2772 116.374Z" fill="#BC4749"></path>
    <path d="M31.45 60.21C33.13 60.21 34.65 60.62 36.01 61.44C37.37 62.24 38.44 63.37 39.22 64.83C40 66.29 40.39 67.96 40.39 69.84C40.39 71.7 39.94 73.5 39.04 75.24C38.14 76.96 36.54 78.72 34.24 80.52C31.96 82.34 28.84 84.14 24.88 85.92L23.56 83.49C26.14 81.97 28.18 80.53 29.68 79.17C31.2 77.83 32.28 76.49 32.92 75.15C33.58 73.81 33.91 72.36 33.91 70.8C33.91 69.62 33.74 68.51 33.4 67.47C33.08 66.41 32.59 65.56 31.93 64.92C31.29 64.26 30.51 63.93 29.59 63.93C27.85 63.93 26.98 65.17 26.98 67.65C26.98 69.47 27.4 70.96 28.24 72.12C29.1 73.28 30.17 74.17 31.45 74.79L29.92 77.34C28.28 77.34 26.73 76.98 25.27 76.26C23.83 75.54 22.67 74.58 21.79 73.38C20.93 72.16 20.5 70.85 20.5 69.45C20.5 67.89 21.03 66.4 22.09 64.98C23.15 63.54 24.53 62.39 26.23 61.53C27.93 60.65 29.67 60.21 31.45 60.21Z" fill="black"></path>
    <path d="M137.45 153.21C139.13 153.21 140.65 153.62 142.01 154.44C143.37 155.24 144.44 156.37 145.22 157.83C146 159.29 146.39 160.96 146.39 162.84C146.39 164.7 145.94 166.5 145.04 168.24C144.14 169.96 142.54 171.72 140.24 173.52C137.96 175.34 134.84 177.14 130.88 178.92L129.56 176.49C132.14 174.97 134.18 173.53 135.68 172.17C137.2 170.83 138.28 169.49 138.92 168.15C139.58 166.81 139.91 165.36 139.91 163.8C139.91 162.62 139.74 161.51 139.4 160.47C139.08 159.41 138.59 158.56 137.93 157.92C137.29 157.26 136.51 156.93 135.59 156.93C133.85 156.93 132.98 158.17 132.98 160.65C132.98 162.47 133.4 163.96 134.24 165.12C135.1 166.28 136.17 167.17 137.45 167.79L135.92 170.34C134.28 170.34 132.73 169.98 131.27 169.26C129.83 168.54 128.67 167.58 127.79 166.38C126.93 165.16 126.5 163.85 126.5 162.45C126.5 160.89 127.03 159.4 128.09 157.98C129.15 156.54 130.53 155.39 132.23 154.53C133.93 153.65 135.67 153.21 137.45 153.21Z" fill="black"></path>
  </symbol>
  <symbol fill="none" xmlns="http://www.w3.org/2000/svg" viewBox="0 0 166 226" id="nine_spades">
    <rect x="2" y="2" width="162" height="222" rx="23" fill="#FFFAFB" stroke="black" stroke-width="4"></rect>
    <path d="M17.8515 26.7506C14.5463 30.7854 13.7628 36.4153 17.3881 40.1022C21.3063 44.0871 27.2697 42.9324 30.8878 39.2527C34.5061 42.9323 40.4693 44.0872 44.3876 40.1022C48.0129 36.4153 47.2293 30.7854 43.9242 26.7506C40.3552 22.3937 35.4689 18.6502 30.8878 15.4038C26.3068 18.6502 21.4205 22.3937 17.8515 26.7506Z" fill="#2C2C2C"></path>
    <path d="M123.851 193.751C120.546 197.785 119.763 203.415 123.388 207.102C127.306 211.087 133.27 209.932 136.888 206.253C140.506 209.932 146.469 211.087 150.388 207.102C154.013 203.415 153.229 197.785 149.924 193.751C146.355 189.394 141.469 185.65 136.888 182.404C132.307 185.65 127.421 189.394 123.851 193.751Z" fill="#2C2C2C"></path>
    <path d="M63.2772 108.626C58.3195 114.678 57.1442 123.123 62.5821 128.653C68.4595 134.63 77.4045 132.898 82.8318 127.379C88.2591 132.898 97.204 134.63 103.081 128.653C108.519 123.123 107.344 114.678 102.386 108.626C97.0328 102.09 89.7033 96.4751 82.8318 91.6055C75.9603 96.4751 68.6308 102.09 63.2772 108.626Z" fill="#2C2C2C"></path>
    <path d="M31.45 60.21C33.13 60.21 34.65 60.62 36.01 61.44C37.37 62.24 38.44 63.37 39.22 64.83C40 66.29 40.39 67.96 40.39 69.84C40.39 71.7 39.94 73.5 39.04 75.24C38.14 76.96 36.54 78.72 34.24 80.52C31.96 82.34 28.84 84.14 24.88 85.92L23.56 83.49C26.14 81.97 28.18 80.53 29.68 79.17C31.2 77.83 32.28 76.49 32.92 75.15C33.58 73.81 33.91 72.36 33.91 70.8C33.91 69.62 33.74 68.51 33.4 67.47C33.08 66.41 32.59 65.56 31.93 64.92C31.29 64.26 30.51 63.93 29.59 63.93C27.85 63.93 26.98 65.17 26.98 67.65C26.98 69.47 27.4 70.96 28.24 72.12C29.1 73.28 30.17 74.17 31.45 74.79L29.92 77.34C28.28 77.34 26.73 76.98 25.27 76.26C23.83 75.54 22.67 74.58 21.79 73.38C20.93 72.16 20.5 70.85 20.5 69.45C20.5 67.89 21.03 66.4 22.09 64.98C23.15 63.54 24.53 62.39 26.23 61.53C27.93 60.65 29.67 60.21 31.45 60.21Z" fill="black"></path>
    <path d="M137.45 153.21C139.13 153.21 140.65 153.62 142.01 154.44C143.37 155.24 144.44 156.37 145.22 157.83C146 159.29 146.39 160.96 146.39 162.84C146.39 164.7 145.94 166.5 145.04 168.24C144.14 169.96 142.54 171.72 140.24 173.52C137.96 175.34 134.84 177.14 130.88 178.92L129.56 176.49C132.14 174.97 134.18 173.53 135.68 172.17C137.2 170.83 138.28 169.49 138.92 168.15C139.58 166.81 139.91 165.36 139.91 163.8C139.91 162.62 139.74 161.51 139.4 160.47C139.08 159.41 138.59 158.56 137.93 157.92C137.29 157.26 136.51 156.93 135.59 156.93C133.85 156.93 132.98 158.17 132.98 160.65C132.98 162.47 133.4 163.96 134.24 165.12C135.1 166.28 136.17 167.17 137.45 167.79L135.92 170.34C134.28 170.34 132.73 169.98 131.27 169.26C129.83 168.54 128.67 167.58 127.79 166.38C126.93 165.16 126.5 163.85 126.5 162.45C126.5 160.89 127.03 159.4 128.09 157.98C129.15 156.54 130.53 155.39 132.23 154.53C133.93 153.65 135.67 153.21 137.45 153.21Z" fill="black"></path>
  </symbol>
  <symbol fill="none" xmlns="http://www.w3.org/2000/svg" viewBox="0 0 166 226" id="queen_clubs">
    <rect x="2" y="2" width="162" height="222" rx="23" fill="#FFFAFB" stroke="black" stroke-width="4"></rect>
    <path d="M38.8989 24.8898L38.3148 27.0823L40.5786 27.2359C44.8311 27.5244 48.1925 31.0676 48.1925 35.3944C48.1925 39.9107 44.5313 43.572 40.015 43.572C36.7963 43.572 34.0083 41.7126 32.6732 39.001L30.9963 35.5954L29.3194 39.001C27.9842 41.7126 25.1963 43.572 21.9776 43.572C17.4612 43.572 13.8 39.9107 13.8 35.3944C13.8 31.0676 17.1614 27.5244 21.414 27.2359L23.6777 27.0823L23.0936 24.8898C22.9146 24.2181 22.8187 23.5105 22.8187 22.7777C22.8187 18.2613 26.4799 14.6001 30.9963 14.6001C35.5126 14.6001 39.1738 18.2613 39.1738 22.7777C39.1738 23.5105 39.0779 24.2181 38.8989 24.8898Z" fill="#2C2C2C"></path>
    <path d="M144.899 191.89L144.315 194.082L146.579 194.236C150.831 194.524 154.193 198.068 154.193 202.394C154.193 206.911 150.531 210.572 146.015 210.572C142.796 210.572 140.008 208.713 138.673 206.001L136.996 202.595L135.319 206.001C133.984 208.713 131.196 210.572 127.978 210.572C123.461 210.572 119.8 206.911 119.8 202.394C119.8 198.068 123.161 194.524 127.414 194.236L129.678 194.082L129.094 191.89C128.915 191.218 128.819 190.511 128.819 189.778C128.819 185.261 132.48 181.6 136.996 181.6C141.513 181.6 145.174 185.261 145.174 189.778C145.174 190.511 145.078 191.218 144.899 191.89Z" fill="#2C2C2C"></path>
    <path d="M94.8484 105.834L93.9722 109.123L97.3679 109.354C103.747 109.786 108.789 115.101 108.789 121.591C108.789 128.366 103.297 133.858 96.5224 133.858C91.6944 133.858 87.5125 131.069 85.5097 127.001L82.9944 121.893L80.479 127.001C78.4763 131.069 74.2944 133.858 69.4664 133.858C62.6918 133.858 57.2 128.366 57.2 121.591C57.2 115.101 62.2422 109.786 68.6209 109.354L72.0166 109.123L71.1404 105.834C70.8719 104.827 70.728 103.766 70.728 102.666C70.728 95.8917 76.2199 90.3999 82.9944 90.3999C89.7689 90.3999 95.2607 95.8917 95.2607 102.666C95.2607 103.766 95.1168 104.827 94.8484 105.834Z" fill="#2C2C2C"></path>
    <path d="M48.34 83.7C44.18 85.18 41.33 85.92 39.79 85.92C39.13 85.92 38.1 85.2 36.7 83.76C35.32 82.34 33.72 80.54 31.9 78.36C31.06 78.52 30.3 78.6 29.62 78.6C27.22 78.6 25.1 78.1 23.26 77.1C21.44 76.08 20.02 74.67 19 72.87C18 71.07 17.5 69.03 17.5 66.75C17.5 64.41 18.25 62.25 19.75 60.27C21.27 58.27 23.15 56.7 25.39 55.56C27.63 54.4 29.75 53.82 31.75 53.82C34.15 53.82 36.27 54.33 38.11 55.35C39.95 56.37 41.37 57.78 42.37 59.58C43.37 61.38 43.87 63.42 43.87 65.7C43.87 68.02 43.13 70.16 41.65 72.12C40.17 74.08 38.31 75.65 36.07 76.83C37.67 77.95 39.16 78.95 40.54 79.83C41.94 80.71 42.79 81.15 43.09 81.15H47.14L48.34 83.7ZM24.55 65.31C24.55 67.01 24.8 68.56 25.3 69.96C25.8 71.36 26.56 72.48 27.58 73.32C28.62 74.16 29.88 74.58 31.36 74.58C32.36 74.58 33.27 74.26 34.09 73.62C34.93 72.96 35.59 72.06 36.07 70.92C36.57 69.78 36.82 68.51 36.82 67.11C36.82 65.39 36.57 63.83 36.07 62.43C35.57 61.03 34.81 59.92 33.79 59.1C32.77 58.26 31.51 57.84 30.01 57.84C29.01 57.84 28.09 58.17 27.25 58.83C26.43 59.47 25.77 60.36 25.27 61.5C24.79 62.64 24.55 63.91 24.55 65.31Z" fill="black"></path>
    <path d="M154.34 176.7C150.18 178.18 147.33 178.92 145.79 178.92C145.13 178.92 144.1 178.2 142.7 176.76C141.32 175.34 139.72 173.54 137.9 171.36C137.06 171.52 136.3 171.6 135.62 171.6C133.22 171.6 131.1 171.1 129.26 170.1C127.44 169.08 126.02 167.67 125 165.87C124 164.07 123.5 162.03 123.5 159.75C123.5 157.41 124.25 155.25 125.75 153.27C127.27 151.27 129.15 149.7 131.39 148.56C133.63 147.4 135.75 146.82 137.75 146.82C140.15 146.82 142.27 147.33 144.11 148.35C145.95 149.37 147.37 150.78 148.37 152.58C149.37 154.38 149.87 156.42 149.87 158.7C149.87 161.02 149.13 163.16 147.65 165.12C146.17 167.08 144.31 168.65 142.07 169.83C143.67 170.95 145.16 171.95 146.54 172.83C147.94 173.71 148.79 174.15 149.09 174.15H153.14L154.34 176.7ZM130.55 158.31C130.55 160.01 130.8 161.56 131.3 162.96C131.8 164.36 132.56 165.48 133.58 166.32C134.62 167.16 135.88 167.58 137.36 167.58C138.36 167.58 139.27 167.26 140.09 166.62C140.93 165.96 141.59 165.06 142.07 163.92C142.57 162.78 142.82 161.51 142.82 160.11C142.82 158.39 142.57 156.83 142.07 155.43C141.57 154.03 140.81 152.92 139.79 152.1C138.77 151.26 137.51 150.84 136.01 150.84C135.01 150.84 134.09 151.17 133.25 151.83C132.43 152.47 131.77 153.36 131.27 154.5C130.79 155.64 130.55 156.91 130.55 158.31Z" fill="black"></path>
  </symbol>
  <symbol fill="none" xmlns="http://www.w3.org/2000/svg" viewBox="0 0 166 226" id="queen_diamonds">
    <rect x="2" y="2" width="162" height="222" rx="23" fill="#FFFAFB" stroke="black" stroke-width="4"></rect>
    <path d="M30.9569 42.3659L19.4 28.9021L30.9569 15.3999L42.5137 28.9021L30.9569 42.3659Z" fill="#BC4749"></path>
    <path d="M136.957 210.366L125.4 196.902L136.957 183.4L148.514 196.902L136.957 210.366Z" fill="#BC4749"></path>
    <path d="M82.9353 133.049L65.6 112.853L82.9353 92.6001L100.271 112.853L82.9353 133.049Z" fill="#BC4749"></path>
    <path d="M48.34 83.7C44.18 85.18 41.33 85.92 39.79 85.92C39.13 85.92 38.1 85.2 36.7 83.76C35.32 82.34 33.72 80.54 31.9 78.36C31.06 78.52 30.3 78.6 29.62 78.6C27.22 78.6 25.1 78.1 23.26 77.1C21.44 76.08 20.02 74.67 19 72.87C18 71.07 17.5 69.03 17.5 66.75C17.5 64.41 18.25 62.25 19.75 60.27C21.27 58.27 23.15 56.7 25.39 55.56C27.63 54.4 29.75 53.82 31.75 53.82C34.15 53.82 36.27 54.33 38.11 55.35C39.95 56.37 41.37 57.78 42.37 59.58C43.37 61.38 43.87 63.42 43.87 65.7C43.87 68.02 43.13 70.16 41.65 72.12C40.17 74.08 38.31 75.65 36.07 76.83C37.67 77.95 39.16 78.95 40.54 79.83C41.94 80.71 42.79 81.15 43.09 81.15H47.14L48.34 83.7ZM24.55 65.31C24.55 67.01 24.8 68.56 25.3 69.96C25.8 71.36 26.56 72.48 27.58 73.32C28.62 74.16 29.88 74.58 31.36 74.58C32.36 74.58 33.27 74.26 34.09 73.62C34.93 72.96 35.59 72.06 36.07 70.92C36.57 69.78 36.82 68.51 36.82 67.11C36.82 65.39 36.57 63.83 36.07 62.43C35.57 61.03 34.81 59.92 33.79 59.1C32.77 58.26 31.51 57.84 30.01 57.84C29.01 57.84 28.09 58.17 27.25 58.83C26.43 59.47 25.77 60.36 25.27 61.5C24.79 62.64 24.55 63.91 24.55 65.31Z" fill="black"></path>
    <path d="M154.34 176.7C150.18 178.18 147.33 178.92 145.79 178.92C145.13 178.92 144.1 178.2 142.7 176.76C141.32 175.34 139.72 173.54 137.9 171.36C137.06 171.52 136.3 171.6 135.62 171.6C133.22 171.6 131.1 171.1 129.26 170.1C127.44 169.08 126.02 167.67 125 165.87C124 164.07 123.5 162.03 123.5 159.75C123.5 157.41 124.25 155.25 125.75 153.27C127.27 151.27 129.15 149.7 131.39 148.56C133.63 147.4 135.75 146.82 137.75 146.82C140.15 146.82 142.27 147.33 144.11 148.35C145.95 149.37 147.37 150.78 148.37 152.58C149.37 154.38 149.87 156.42 149.87 158.7C149.87 161.02 149.13 163.16 147.65 165.12C146.17 167.08 144.31 168.65 142.07 169.83C143.67 170.95 145.16 171.95 146.54 172.83C147.94 173.71 148.79 174.15 149.09 174.15H153.14L154.34 176.7ZM130.55 158.31C130.55 160.01 130.8 161.56 131.3 162.96C131.8 164.36 132.56 165.48 133.58 166.32C134.62 167.16 135.88 167.58 137.36 167.58C138.36 167.58 139.27 167.26 140.09 166.62C140.93 165.96 141.59 165.06 142.07 163.92C142.57 162.78 142.82 161.51 142.82 160.11C142.82 158.39 142.57 156.83 142.07 155.43C141.57 154.03 140.81 152.92 139.79 152.1C138.77 151.26 137.51 150.84 136.01 150.84C135.01 150.84 134.09 151.17 133.25 151.83C132.43 152.47 131.77 153.36 131.27 154.5C130.79 155.64 130.55 156.91 130.55 158.31Z" fill="black"></path>
  </symbol>
  <symbol fill="none" xmlns="http://www.w3.org/2000/svg" viewBox="0 0 166 226" id="queen_hearts">
    <rect x="2" y="2" width="162" height="222" rx="23" fill="#FFFAFB" stroke="black" stroke-width="4"></rect>
    <path d="M17.8515 32.2494C14.5463 28.2146 13.7628 22.5847 17.3881 18.8978C21.3063 14.9129 27.2696 16.0676 30.8878 19.7473C34.5061 16.0677 40.4693 14.9128 44.3876 18.8978C48.0129 22.5847 47.2293 28.2146 43.9242 32.2494C40.3552 36.6063 35.4689 40.3498 30.8878 43.5962C26.3068 40.3498 21.4205 36.6063 17.8515 32.2494Z" fill="#BC4749"></path>
    <path d="M123.851 199.249C120.546 195.215 119.763 189.585 123.388 185.898C127.306 181.913 133.27 183.068 136.888 186.747C140.506 183.068 146.469 181.913 150.388 185.898C154.013 189.585 153.229 195.215 149.924 199.249C146.355 203.606 141.469 207.35 136.888 210.596C132.307 207.35 127.421 203.606 123.851 199.249Z" fill="#BC4749"></path>
    <path d="M63.2772 116.374C58.3195 110.322 57.1441 101.877 62.5821 96.3469C68.4595 90.3696 77.4045 92.1017 82.8318 97.6212C88.2591 92.1018 97.204 90.3695 103.081 96.3469C108.519 101.877 107.344 110.322 102.386 116.374C97.0327 122.91 89.7033 128.525 82.8318 133.394C75.9602 128.525 68.6308 122.91 63.2772 116.374Z" fill="#BC4749"></path>
    <path d="M48.34 83.7C44.18 85.18 41.33 85.92 39.79 85.92C39.13 85.92 38.1 85.2 36.7 83.76C35.32 82.34 33.72 80.54 31.9 78.36C31.06 78.52 30.3 78.6 29.62 78.6C27.22 78.6 25.1 78.1 23.26 77.1C21.44 76.08 20.02 74.67 19 72.87C18 71.07 17.5 69.03 17.5 66.75C17.5 64.41 18.25 62.25 19.75 60.27C21.27 58.27 23.15 56.7 25.39 55.56C27.63 54.4 29.75 53.82 31.75 53.82C34.15 53.82 36.27 54.33 38.11 55.35C39.95 56.37 41.37 57.78 42.37 59.58C43.37 61.38 43.87 63.42 43.87 65.7C43.87 68.02 43.13 70.16 41.65 72.12C40.17 74.08 38.31 75.65 36.07 76.83C37.67 77.95 39.16 78.95 40.54 79.83C41.94 80.71 42.79 81.15 43.09 81.15H47.14L48.34 83.7ZM24.55 65.31C24.55 67.01 24.8 68.56 25.3 69.96C25.8 71.36 26.56 72.48 27.58 73.32C28.62 74.16 29.88 74.58 31.36 74.58C32.36 74.58 33.27 74.26 34.09 73.62C34.93 72.96 35.59 72.06 36.07 70.92C36.57 69.78 36.82 68.51 36.82 67.11C36.82 65.39 36.57 63.83 36.07 62.43C35.57 61.03 34.81 59.92 33.79 59.1C32.77 58.26 31.51 57.84 30.01 57.84C29.01 57.84 28.09 58.17 27.25 58.83C26.43 59.47 25.77 60.36 25.27 61.5C24.79 62.64 24.55 63.91 24.55 65.31Z" fill="black"></path>
    <path d="M154.34 176.7C150.18 178.18 147.33 178.92 145.79 178.92C145.13 178.92 144.1 178.2 142.7 176.76C141.32 175.34 139.72 173.54 137.9 171.36C137.06 171.52 136.3 171.6 135.62 171.6C133.22 171.6 131.1 171.1 129.26 170.1C127.44 169.08 126.02 167.67 125 165.87C124 164.07 123.5 162.03 123.5 159.75C123.5 157.41 124.25 155.25 125.75 153.27C127.27 151.27 129.15 149.7 131.39 148.56C133.63 147.4 135.75 146.82 137.75 146.82C140.15 146.82 142.27 147.33 144.11 148.35C145.95 149.37 147.37 150.78 148.37 152.58C149.37 154.38 149.87 156.42 149.87 158.7C149.87 161.02 149.13 163.16 147.65 165.12C146.17 167.08 144.31 168.65 142.07 169.83C143.67 170.95 145.16 171.95 146.54 172.83C147.94 173.71 148.79 174.15 149.09 174.15H153.14L154.34 176.7ZM130.55 158.31C130.55 160.01 130.8 161.56 131.3 162.96C131.8 164.36 132.56 165.48 133.58 166.32C134.62 167.16 135.88 167.58 137.36 167.58C138.36 167.58 139.27 167.26 140.09 166.62C140.93 165.96 141.59 165.06 142.07 163.92C142.57 162.78 142.82 161.51 142.82 160.11C142.82 158.39 142.57 156.83 142.07 155.43C141.57 154.03 140.81 152.92 139.79 152.1C138.77 151.26 137.51 150.84 136.01 150.84C135.01 150.84 134.09 151.17 133.25 151.83C132.43 152.47 131.77 153.36 131.27 154.5C130.79 155.64 130.55 156.91 130.55 158.31Z" fill="black"></path>
  </symbol>
  <symbol fill="none" xmlns="http://www.w3.org/2000/svg" viewBox="0 0 166 226" id="queen_spades">
    <rect x="2" y="2" width="162" height="222" rx="23" fill="#FFFAFB" stroke="black" stroke-width="4"></rect>
    <path d="M17.8515 26.7506C14.5463 30.7854 13.7628 36.4153 17.3881 40.1022C21.3063 44.0871 27.2696 42.9324 30.8878 39.2527C34.5061 42.9323 40.4693 44.0872 44.3876 40.1022C48.0129 36.4153 47.2293 30.7854 43.9242 26.7506C40.3552 22.3937 35.4689 18.6502 30.8878 15.4038C26.3068 18.6502 21.4205 22.3937 17.8515 26.7506Z" fill="#2C2C2C"></path>
    <path d="M123.851 193.751C120.546 197.785 119.763 203.415 123.388 207.102C127.306 211.087 133.27 209.932 136.888 206.253C140.506 209.932 146.469 211.087 150.388 207.102C154.013 203.415 153.229 197.785 149.924 193.751C146.355 189.394 141.469 185.65 136.888 182.404C132.307 185.65 127.421 189.394 123.851 193.751Z" fill="#2C2C2C"></path>
    <path d="M63.2772 108.626C58.3195 114.678 57.1441 123.123 62.5821 128.653C68.4595 134.63 77.4045 132.898 82.8318 127.379C88.2591 132.898 97.204 134.63 103.081 128.653C108.519 123.123 107.344 114.678 102.386 108.626C97.0327 102.09 89.7033 96.4751 82.8318 91.6055C75.9602 96.4751 68.6308 102.09 63.2772 108.626Z" fill="#2C2C2C"></path>
    <path d="M48.34 83.7C44.18 85.18 41.33 85.92 39.79 85.92C39.13 85.92 38.1 85.2 36.7 83.76C35.32 82.34 33.72 80.54 31.9 78.36C31.06 78.52 30.3 78.6 29.62 78.6C27.22 78.6 25.1 78.1 23.26 77.1C21.44 76.08 20.02 74.67 19 72.87C18 71.07 17.5 69.03 17.5 66.75C17.5 64.41 18.25 62.25 19.75 60.27C21.27 58.27 23.15 56.7 25.39 55.56C27.63 54.4 29.75 53.82 31.75 53.82C34.15 53.82 36.27 54.33 38.11 55.35C39.95 56.37 41.37 57.78 42.37 59.58C43.37 61.38 43.87 63.42 43.87 65.7C43.87 68.02 43.13 70.16 41.65 72.12C40.17 74.08 38.31 75.65 36.07 76.83C37.67 77.95 39.16 78.95 40.54 79.83C41.94 80.71 42.79 81.15 43.09 81.15H47.14L48.34 83.7ZM24.55 65.31C24.55 67.01 24.8 68.56 25.3 69.96C25.8 71.36 26.56 72.48 27.58 73.32C28.62 74.16 29.88 74.58 31.36 74.58C32.36 74.58 33.27 74.26 34.09 73.62C34.93 72.96 35.59 72.06 36.07 70.92C36.57 69.78 36.82 68.51 36.82 67.11C36.82 65.39 36.57 63.83 36.07 62.43C35.57 61.03 34.81 59.92 33.79 59.1C32.77 58.26 31.51 57.84 30.01 57.84C29.01 57.84 28.09 58.17 27.25 58.83C26.43 59.47 25.77 60.36 25.27 61.5C24.79 62.64 24.55 63.91 24.55 65.31Z" fill="black"></path>
    <path d="M154.34 176.7C150.18 178.18 147.33 178.92 145.79 178.92C145.13 178.92 144.1 178.2 142.7 176.76C141.32 175.34 139.72 173.54 137.9 171.36C137.06 171.52 136.3 171.6 135.62 171.6C133.22 171.6 131.1 171.1 129.26 170.1C127.44 169.08 126.02 167.67 125 165.87C124 164.07 123.5 162.03 123.5 159.75C123.5 157.41 124.25 155.25 125.75 153.27C127.27 151.27 129.15 149.7 131.39 148.56C133.63 147.4 135.75 146.82 137.75 146.82C140.15 146.82 142.27 147.33 144.11 148.35C145.95 149.37 147.37 150.78 148.37 152.58C149.37 154.38 149.87 156.42 149.87 158.7C149.87 161.02 149.13 163.16 147.65 165.12C146.17 167.08 144.31 168.65 142.07 169.83C143.67 170.95 145.16 171.95 146.54 172.83C147.94 173.71 148.79 174.15 149.09 174.15H153.14L154.34 176.7ZM130.55 158.31C130.55 160.01 130.8 161.56 131.3 162.96C131.8 164.36 132.56 165.48 133.58 166.32C134.62 167.16 135.88 167.58 137.36 167.58C138.36 167.58 139.27 167.26 140.09 166.62C140.93 165.96 141.59 165.06 142.07 163.92C142.57 162.78 142.82 161.51 142.82 160.11C142.82 158.39 142.57 156.83 142.07 155.43C141.57 154.03 140.81 152.92 139.79 152.1C138.77 151.26 137.51 150.84 136.01 150.84C135.01 150.84 134.09 151.17 133.25 151.83C132.43 152.47 131.77 153.36 131.27 154.5C130.79 155.64 130.55 156.91 130.55 158.31Z" fill="black"></path>
  </symbol>
  <symbol fill="none" xmlns="http://www.w3.org/2000/svg" viewBox="0 0 166 226" id="ten_clubs">
    <rect x="2" y="2" width="162" height="222" rx="23" fill="#FFFAFB" stroke="black" stroke-width="4"></rect>
    <path d="M38.8989 24.8898L38.3148 27.0823L40.5786 27.2359C44.8311 27.5244 48.1925 31.0676 48.1925 35.3944C48.1925 39.9107 44.5313 43.572 40.0149 43.572C36.7962 43.572 34.0083 41.7126 32.6731 39.001L30.9962 35.5954L29.3193 39.001C27.9842 41.7126 25.1963 43.572 21.9776 43.572C17.4612 43.572 13.8 39.9107 13.8 35.3944C13.8 31.0676 17.1614 27.5244 21.4139 27.2359L23.6777 27.0823L23.0936 24.8898C22.9146 24.2181 22.8187 23.5105 22.8187 22.7777C22.8187 18.2613 26.4799 14.6001 30.9962 14.6001C35.5126 14.6001 39.1738 18.2613 39.1738 22.7777C39.1738 23.5105 39.0779 24.2181 38.8989 24.8898Z" fill="#2C2C2C"></path>
    <path d="M144.899 191.89L144.315 194.082L146.579 194.236C150.831 194.524 154.193 198.068 154.193 202.394C154.193 206.911 150.531 210.572 146.015 210.572C142.796 210.572 140.008 208.713 138.673 206.001L136.996 202.595L135.319 206.001C133.984 208.713 131.196 210.572 127.978 210.572C123.461 210.572 119.8 206.911 119.8 202.394C119.8 198.068 123.161 194.524 127.414 194.236L129.678 194.082L129.094 191.89C128.915 191.218 128.819 190.511 128.819 189.778C128.819 185.261 132.48 181.6 136.996 181.6C141.513 181.6 145.174 185.261 145.174 189.778C145.174 190.511 145.078 191.218 144.899 191.89Z" fill="#2C2C2C"></path>
    <path d="M94.8484 105.834L93.9722 109.123L97.3679 109.354C103.747 109.786 108.789 115.101 108.789 121.591C108.789 128.366 103.297 133.858 96.5224 133.858C91.6944 133.858 87.5125 131.069 85.5098 127.001L82.9944 121.893L80.4791 127.001C78.4763 131.069 74.2944 133.858 69.4664 133.858C62.6918 133.858 57.2 128.366 57.2 121.591C57.2 115.101 62.2422 109.786 68.6209 109.354L72.0166 109.123L71.1404 105.834C70.8719 104.827 70.728 103.766 70.728 102.666C70.728 95.8917 76.2199 90.3999 82.9944 90.3999C89.7689 90.3999 95.2608 95.8917 95.2608 102.666C95.2608 103.766 95.1169 104.827 94.8484 105.834Z" fill="#2C2C2C"></path>
    <path d="M27.02 78H15.8V75.87L18.71 73.59V63.75L15.2 62.91L16.4 60.51H27.62V62.64L24.71 64.92V74.76L28.22 75.6L27.02 78ZM42.4302 60.21C44.2502 60.21 45.8702 60.58 47.2902 61.32C48.7302 62.06 49.8402 63.08 50.6202 64.38C51.4202 65.68 51.8202 67.13 51.8202 68.73C51.8202 70.45 51.2102 72.05 49.9902 73.53C48.7902 74.99 47.2902 76.15 45.4902 77.01C43.6902 77.87 41.9602 78.3 40.3002 78.3C38.4802 78.3 36.8602 77.93 35.4402 77.19C34.0202 76.45 32.9102 75.43 32.1102 74.13C31.3102 72.83 30.9102 71.38 30.9102 69.78C30.9102 68.06 31.5102 66.47 32.7102 65.01C33.9302 63.53 35.4402 62.36 37.2402 61.5C39.0402 60.64 40.7702 60.21 42.4302 60.21ZM40.6902 63.93C38.4902 63.93 37.3902 65.4 37.3902 68.34C37.3902 70.14 37.7902 71.63 38.5902 72.81C39.3902 73.99 40.5402 74.58 42.0402 74.58C44.2402 74.58 45.3402 73.1 45.3402 70.14C45.3402 68.34 44.9402 66.86 44.1402 65.7C43.3402 64.52 42.1902 63.93 40.6902 63.93Z" fill="black"></path>
    <path d="M131.02 171H119.8V168.87L122.71 166.59V156.75L119.2 155.91L120.4 153.51H131.62V155.64L128.71 157.92V167.76L132.22 168.6L131.02 171ZM146.43 153.21C148.25 153.21 149.87 153.58 151.29 154.32C152.73 155.06 153.84 156.08 154.62 157.38C155.42 158.68 155.82 160.13 155.82 161.73C155.82 163.45 155.21 165.05 153.99 166.53C152.79 167.99 151.29 169.15 149.49 170.01C147.69 170.87 145.96 171.3 144.3 171.3C142.48 171.3 140.86 170.93 139.44 170.19C138.02 169.45 136.91 168.43 136.11 167.13C135.31 165.83 134.91 164.38 134.91 162.78C134.91 161.06 135.51 159.47 136.71 158.01C137.93 156.53 139.44 155.36 141.24 154.5C143.04 153.64 144.77 153.21 146.43 153.21ZM144.69 156.93C142.49 156.93 141.39 158.4 141.39 161.34C141.39 163.14 141.79 164.63 142.59 165.81C143.39 166.99 144.54 167.58 146.04 167.58C148.24 167.58 149.34 166.1 149.34 163.14C149.34 161.34 148.94 159.86 148.14 158.7C147.34 157.52 146.19 156.93 144.69 156.93Z" fill="black"></path>
  </symbol>
  <symbol fill="none" xmlns="http://www.w3.org/2000/svg" viewBox="0 0 166 226" id="ten_diamonds">
    <rect x="2" y="2" width="162" height="222" rx="23" fill="#FFFAFB" stroke="black" stroke-width="4"></rect>
    <path d="M30.9569 42.3659L19.4 28.9021L30.9569 15.3999L42.5138 28.9021L30.9569 42.3659Z" fill="#BC4749"></path>
    <path d="M136.957 210.366L125.4 196.902L136.957 183.4L148.514 196.902L136.957 210.366Z" fill="#BC4749"></path>
    <path d="M82.9353 133.049L65.6 112.853L82.9353 92.6001L100.271 112.853L82.9353 133.049Z" fill="#BC4749"></path>
    <path d="M27.02 78H15.8V75.87L18.71 73.59V63.75L15.2 62.91L16.4 60.51H27.62V62.64L24.71 64.92V74.76L28.22 75.6L27.02 78ZM42.4302 60.21C44.2502 60.21 45.8702 60.58 47.2902 61.32C48.7302 62.06 49.8402 63.08 50.6202 64.38C51.4202 65.68 51.8202 67.13 51.8202 68.73C51.8202 70.45 51.2102 72.05 49.9902 73.53C48.7902 74.99 47.2902 76.15 45.4902 77.01C43.6902 77.87 41.9602 78.3 40.3002 78.3C38.4802 78.3 36.8602 77.93 35.4402 77.19C34.0202 76.45 32.9102 75.43 32.1102 74.13C31.3102 72.83 30.9102 71.38 30.9102 69.78C30.9102 68.06 31.5102 66.47 32.7102 65.01C33.9302 63.53 35.4402 62.36 37.2402 61.5C39.0402 60.64 40.7702 60.21 42.4302 60.21ZM40.6902 63.93C38.4902 63.93 37.3902 65.4 37.3902 68.34C37.3902 70.14 37.7902 71.63 38.5902 72.81C39.3902 73.99 40.5402 74.58 42.0402 74.58C44.2402 74.58 45.3402 73.1 45.3402 70.14C45.3402 68.34 44.9402 66.86 44.1402 65.7C43.3402 64.52 42.1902 63.93 40.6902 63.93Z" fill="black"></path>
    <path d="M131.02 171H119.8V168.87L122.71 166.59V156.75L119.2 155.91L120.4 153.51H131.62V155.64L128.71 157.92V167.76L132.22 168.6L131.02 171ZM146.43 153.21C148.25 153.21 149.87 153.58 151.29 154.32C152.73 155.06 153.84 156.08 154.62 157.38C155.42 158.68 155.82 160.13 155.82 161.73C155.82 163.45 155.21 165.05 153.99 166.53C152.79 167.99 151.29 169.15 149.49 170.01C147.69 170.87 145.96 171.3 144.3 171.3C142.48 171.3 140.86 170.93 139.44 170.19C138.02 169.45 136.91 168.43 136.11 167.13C135.31 165.83 134.91 164.38 134.91 162.78C134.91 161.06 135.51 159.47 136.71 158.01C137.93 156.53 139.44 155.36 141.24 154.5C143.04 153.64 144.77 153.21 146.43 153.21ZM144.69 156.93C142.49 156.93 141.39 158.4 141.39 161.34C141.39 163.14 141.79 164.63 142.59 165.81C143.39 166.99 144.54 167.58 146.04 167.58C148.24 167.58 149.34 166.1 149.34 163.14C149.34 161.34 148.94 159.86 148.14 158.7C147.34 157.52 146.19 156.93 144.69 156.93Z" fill="black"></path>
  </symbol>
  <symbol fill="none" xmlns="http://www.w3.org/2000/svg" viewBox="0 0 166 226" id="ten_hearts">
    <rect x="2" y="2" width="162" height="222" rx="23" fill="#FFFAFB" stroke="black" stroke-width="4"></rect>
    <path d="M17.8515 32.2494C14.5463 28.2146 13.7628 22.5847 17.3881 18.8978C21.3063 14.9129 27.2697 16.0676 30.8878 19.7473C34.5061 16.0677 40.4693 14.9128 44.3876 18.8978C48.0129 22.5847 47.2293 28.2146 43.9242 32.2494C40.3552 36.6063 35.4689 40.3498 30.8878 43.5962C26.3068 40.3498 21.4205 36.6063 17.8515 32.2494Z" fill="#BC4749"></path>
    <path d="M123.851 199.249C120.546 195.215 119.763 189.585 123.388 185.898C127.306 181.913 133.27 183.068 136.888 186.747C140.506 183.068 146.469 181.913 150.388 185.898C154.013 189.585 153.229 195.215 149.924 199.249C146.355 203.606 141.469 207.35 136.888 210.596C132.307 207.35 127.421 203.606 123.851 199.249Z" fill="#BC4749"></path>
    <path d="M63.2772 116.374C58.3195 110.322 57.1442 101.877 62.5821 96.3469C68.4595 90.3696 77.4045 92.1017 82.8318 97.6212C88.2591 92.1018 97.204 90.3695 103.081 96.3469C108.519 101.877 107.344 110.322 102.386 116.374C97.0328 122.91 89.7033 128.525 82.8318 133.394C75.9603 128.525 68.6308 122.91 63.2772 116.374Z" fill="#BC4749"></path>
    <path d="M27.02 78H15.8V75.87L18.71 73.59V63.75L15.2 62.91L16.4 60.51H27.62V62.64L24.71 64.92V74.76L28.22 75.6L27.02 78ZM42.4302 60.21C44.2502 60.21 45.8702 60.58 47.2902 61.32C48.7302 62.06 49.8402 63.08 50.6202 64.38C51.4202 65.68 51.8202 67.13 51.8202 68.73C51.8202 70.45 51.2102 72.05 49.9902 73.53C48.7902 74.99 47.2902 76.15 45.4902 77.01C43.6902 77.87 41.9602 78.3 40.3002 78.3C38.4802 78.3 36.8602 77.93 35.4402 77.19C34.0202 76.45 32.9102 75.43 32.1102 74.13C31.3102 72.83 30.9102 71.38 30.9102 69.78C30.9102 68.06 31.5102 66.47 32.7102 65.01C33.9302 63.53 35.4402 62.36 37.2402 61.5C39.0402 60.64 40.7702 60.21 42.4302 60.21ZM40.6902 63.93C38.4902 63.93 37.3902 65.4 37.3902 68.34C37.3902 70.14 37.7902 71.63 38.5902 72.81C39.3902 73.99 40.5402 74.58 42.0402 74.58C44.2402 74.58 45.3402 73.1 45.3402 70.14C45.3402 68.34 44.9402 66.86 44.1402 65.7C43.3402 64.52 42.1902 63.93 40.6902 63.93Z" fill="black"></path>
    <path d="M131.02 171H119.8V168.87L122.71 166.59V156.75L119.2 155.91L120.4 153.51H131.62V155.64L128.71 157.92V167.76L132.22 168.6L131.02 171ZM146.43 153.21C148.25 153.21 149.87 153.58 151.29 154.32C152.73 155.06 153.84 156.08 154.62 157.38C155.42 158.68 155.82 160.13 155.82 161.73C155.82 163.45 155.21 165.05 153.99 166.53C152.79 167.99 151.29 169.15 149.49 170.01C147.69 170.87 145.96 171.3 144.3 171.3C142.48 171.3 140.86 170.93 139.44 170.19C138.02 169.45 136.91 168.43 136.11 167.13C135.31 165.83 134.91 164.38 134.91 162.78C134.91 161.06 135.51 159.47 136.71 158.01C137.93 156.53 139.44 155.36 141.24 154.5C143.04 153.64 144.77 153.21 146.43 153.21ZM144.69 156.93C142.49 156.93 141.39 158.4 141.39 161.34C141.39 163.14 141.79 164.63 142.59 165.81C143.39 166.99 144.54 167.58 146.04 167.58C148.24 167.58 149.34 166.1 149.34 163.14C149.34 161.34 148.94 159.86 148.14 158.7C147.34 157.52 146.19 156.93 144.69 156.93Z" fill="black"></path>
  </symbol>
  <symbol fill="none" xmlns="http://www.w3.org/2000/svg" viewBox="0 0 166 226" id="ten_spades">
    <rect x="2" y="2" width="162" height="222" rx="23" fill="#FFFAFB" stroke="black" stroke-width="4"></rect>
    <path d="M17.8515 26.7506C14.5463 30.7854 13.7628 36.4153 17.3881 40.1022C21.3063 44.0871 27.2697 42.9324 30.8878 39.2527C34.5061 42.9323 40.4693 44.0872 44.3876 40.1022C48.0129 36.4153 47.2293 30.7854 43.9242 26.7506C40.3552 22.3937 35.4689 18.6502 30.8878 15.4038C26.3068 18.6502 21.4205 22.3937 17.8515 26.7506Z" fill="#2C2C2C"></path>
    <path d="M123.851 193.751C120.546 197.785 119.763 203.415 123.388 207.102C127.306 211.087 133.27 209.932 136.888 206.253C140.506 209.932 146.469 211.087 150.388 207.102C154.013 203.415 153.229 197.785 149.924 193.751C146.355 189.394 141.469 185.65 136.888 182.404C132.307 185.65 127.421 189.394 123.851 193.751Z" fill="#2C2C2C"></path>
    <path d="M63.2772 108.626C58.3195 114.678 57.1442 123.123 62.5821 128.653C68.4595 134.63 77.4045 132.898 82.8318 127.379C88.2591 132.898 97.204 134.63 103.081 128.653C108.519 123.123 107.344 114.678 102.386 108.626C97.0328 102.09 89.7033 96.4751 82.8318 91.6055C75.9603 96.4751 68.6308 102.09 63.2772 108.626Z" fill="#2C2C2C"></path>
    <path d="M27.02 78H15.8V75.87L18.71 73.59V63.75L15.2 62.91L16.4 60.51H27.62V62.64L24.71 64.92V74.76L28.22 75.6L27.02 78ZM42.4302 60.21C44.2502 60.21 45.8702 60.58 47.2902 61.32C48.7302 62.06 49.8402 63.08 50.6202 64.38C51.4202 65.68 51.8202 67.13 51.8202 68.73C51.8202 70.45 51.2102 72.05 49.9902 73.53C48.7902 74.99 47.2902 76.15 45.4902 77.01C43.6902 77.87 41.9602 78.3 40.3002 78.3C38.4802 78.3 36.8602 77.93 35.4402 77.19C34.0202 76.45 32.9102 75.43 32.1102 74.13C31.3102 72.83 30.9102 71.38 30.9102 69.78C30.9102 68.06 31.5102 66.47 32.7102 65.01C33.9302 63.53 35.4402 62.36 37.2402 61.5C39.0402 60.64 40.7702 60.21 42.4302 60.21ZM40.6902 63.93C38.4902 63.93 37.3902 65.4 37.3902 68.34C37.3902 70.14 37.7902 71.63 38.5902 72.81C39.3902 73.99 40.5402 74.58 42.0402 74.58C44.2402 74.58 45.3402 73.1 45.3402 70.14C45.3402 68.34 44.9402 66.86 44.1402 65.7C43.3402 64.52 42.1902 63.93 40.6902 63.93Z" fill="black"></path>
    <path d="M131.02 171H119.8V168.87L122.71 166.59V156.75L119.2 155.91L120.4 153.51H131.62V155.64L128.71 157.92V167.76L132.22 168.6L131.02 171ZM146.43 153.21C148.25 153.21 149.87 153.58 151.29 154.32C152.73 155.06 153.84 156.08 154.62 157.38C155.42 158.68 155.82 160.13 155.82 161.73C155.82 163.45 155.21 165.05 153.99 166.53C152.79 167.99 151.29 169.15 149.49 170.01C147.69 170.87 145.96 171.3 144.3 171.3C142.48 171.3 140.86 170.93 139.44 170.19C138.02 169.45 136.91 168.43 136.11 167.13C135.31 165.83 134.91 164.38 134.91 162.78C134.91 161.06 135.51 159.47 136.71 158.01C137.93 156.53 139.44 155.36 141.24 154.5C143.04 153.64 144.77 153.21 146.43 153.21ZM144.69 156.93C142.49 156.93 141.39 158.4 141.39 161.34C141.39 163.14 141.79 164.63 142.59 165.81C143.39 166.99 144.54 167.58 146.04 167.58C148.24 167.58 149.34 166.1 149.34 163.14C149.34 161.34 148.94 159.86 148.14 158.7C147.34 157.52 146.19 156.93 144.69 156.93Z" fill="black"></path>
  </symbol>
</svg>